<?xml version="1.0" encoding="utf-8"?>
<!-- Generator: Adobe Illustrator 25.2.1, SVG Export Plug-In . SVG Version: 6.00 Build 0)  -->
<svg version="1.1" id="Capa_1" xmlns="http://www.w3.org/2000/svg" xmlns:xlink="http://www.w3.org/1999/xlink" x="0px" y="0px"
	 viewBox="0 0 1080 1080" style="enable-background:new 0 0 1080 1080;" xml:space="preserve">
<style type="text/css">
	.st0{fill:#DDE8FD;}
	.st1{fill:#BED2FA;}
	.st2{fill:#FFFFFF;}
	.st3{fill:#3662C1;}
	.st4{fill:#6D89CF;}
	.st5{fill:#3A49CD;}
	.st6{fill:#93B3F4;}
	.st7{fill:#EA8888;}
	.st8{fill:#030231;}
	.st9{fill:#0B0754;}
	.st10{fill:#FC9290;}
	.st11{fill:#FA7269;}
	.st12{fill:#ED6966;}
	.st13{fill:#9E332E;}
	.st14{fill:#E75755;}
	.st15{fill:#010117;}
</style>
<g id="Capa_2_1_">
	<g>
		<g>
			<path class="st0" d="M281.8,820.2c0,0-166.2-150.2-72.6-353C254,369.9,373.7,346.8,410,366.8c47.8,26.1,111.2-44.8,248.3-93.6
				c103.1-36.6,336.1,38,260.1,267.9c-46.1,139.4,131.2,102.8,103.8,280.8L281.8,820.2z"/>
		</g>
		<g>
			<g>
				<g>
					<rect x="208.5" y="639.8" class="st1" width="131.9" height="180.1"/>
				</g>
				<g>
					<rect x="340.5" y="639.8" class="st2" width="102.4" height="180.1"/>
				</g>
				<g>
					<polygon class="st3" points="374.1,563.2 330.6,652 199.4,652 267.9,563.5 					"/>
				</g>
				<g>
					<polygon class="st1" points="379.1,563.2 336.1,652 204.8,652 273,563.5 					"/>
				</g>
				<g>
					<path class="st4" d="M274.3,607.6h-2.7c-9.5,0-17,7.5-17,17v43.1H291v-43.7C290.6,615.1,283.5,607.6,274.3,607.6z"/>
				</g>
				<g>
					<g>
						<polygon class="st3" points="457.1,657.1 338.1,657.1 267.6,563.2 307.2,563.2 384.6,563.2 						"/>
					</g>
					<g>
						<polygon class="st5" points="457.1,657.1 435.4,657.1 307.2,563.2 384.6,563.2 						"/>
					</g>
				</g>
			</g>
			<g>
				<g>
					<polygon class="st3" points="258.7,676.8 228.2,740.2 134.6,740.2 183.5,677.1 					"/>
				</g>
				<g>
					<polygon class="st1" points="261.8,676.8 230.9,740.2 137.3,740.2 186.2,677.1 					"/>
				</g>
				<g>
					<path class="st1" d="M230.6,740.2V808h-30.9c-1,0-1.7-0.3-1.7-0.3s-15.9,0-34.6-6.4c-8.5-3.1-17.6-7.1-26.1-13.6v-47.8h93.3
						V740.2z"/>
				</g>
				<g>
					<path class="st2" d="M309.6,740.2v55.3c-5.8,1.7-11.2,3.1-16.3,4.4c-18,4.4-33.9,7.1-47.1,8.1h-15.6v-67.8L309.6,740.2
						L309.6,740.2z"/>
				</g>
				<g>
					<polygon class="st3" points="318.4,743.9 233.6,743.9 183.5,677.1 208.5,677.1 266.9,677.1 					"/>
				</g>
				<g>
					<path class="st4" d="M203.1,754.4v53.9h-3.4c-1,0-1.7-0.3-1.7-0.3s-15.9,0-34.6-6.4v-46.5c0-5.8,2.4-11.2,6.4-14.6
						c3.4-3.4,8.1-5.4,13.6-5.4c5.1,0,9.8,2,13.2,5.4C200.7,743.9,203.1,748.7,203.1,754.4z"/>
				</g>
				<g>
					<path class="st4" d="M179,712.4c0-2.4,2-4.4,4.4-4.4c2.4,0,4.4,2,4.4,4.4c0,2.4-2,4.4-4.4,4.4C181.1,716.8,179,714.8,179,712.4
						z"/>
				</g>
			</g>
		</g>
		<g>
			<polygon class="st5" points="318.4,743.9 302.2,743.9 208.5,677.1 266.9,677.1 			"/>
		</g>
		<g>
			<path class="st6" d="M741.7,819.9c-67.8-20-149.6-38.7-217.1-22.4s-93.3,38-167.2-12.2c-6.8-4.4-12.9-7.8-18.7-10.2
				c13.2-2.4,30.5-6.4,22.7-10.9c-8.1-4.4-21.7,3.1-29.5,8.5c-2-0.7-3.7-1-5.8-1.4c18-12.9,49.5-37,34.6-37.6
				c-14.6-0.7-32.2,23.4-40.7,37c-1.4,0-3.1-0.3-4.4-0.3c-0.7-7.1-3.4-19.3-13.9-20c-10.5-0.7,2,12.9,9.2,20.3
				c-39.7,2.7-66.8,47.8-150.6,19.3c-12.9-4.4-26.1-4.1-38.7-1.4c-7.8-17.3-31.2-64.8-50.5-59.7c-19.3,4.7,28.5,45.8,46.8,60.7
				c-2,0.7-4.4,1-6.4,2c-10.9-8.1-31.5-21-43.4-15.6c-11.5,5.8,17.3,13.6,35.9,18C79,804,60.3,820.6,60.3,820.6L741.7,819.9z"/>
		</g>
		<g>
			<path class="st6" d="M989.9,819.9h-78.7c-4.4-3.7,3.1-11.9,10.5-12.2c3.4-0.3,7.5,0.3,11.9,1.4c1-14.2,7.1-79,30.5-76.3
				c26.1,3.1,0,28.5-7.5,43.7c-5.4,11.2-11.2,27.1-13.9,34.9c2,0.3,4.4,1,6.4,1.4c3.4-10.5,16.3-46.5,32.9-44.4
				c19.3,2.4,11.5,17-2,25.4c-10.2,6.4-22.4,15.3-28.1,19.7c5.1,0.7,10.2,1.4,15.3,1.4C980.8,813.8,987.2,817.9,989.9,819.9z"/>
		</g>
		<g>
			<g>
				<g>
					<path class="st7" d="M575.5,378c0,0,18.7,8.8,23.1,7.8c4.4-1,20.3-4.1,22.7-3.1c0,0,2.7,4.1,0.7,6.8
						c-2,2.7-17.6,10.2-23.4,10.2c-5.8,0.3-27.1-3.7-31.9-7.1L575.5,378z"/>
				</g>
				<g>
					<path class="st7" d="M620.9,382.7c0,0,7.1-3.1,9.5,0.3c2.4,3.4,3.7,6.8,3.4,8.5s-5.1,2.4-7.1,1c-2-1.4-6.8-3.1-6.8-3.1
						L620.9,382.7z"/>
				</g>
			</g>
			<g>
				<path class="st8" d="M655.2,803.3c0,0-4.1,6.4-4.1,13.9c0,1.7,1.4,3.1,3.1,3.1h24.8c2.4,0,4.1-2.4,3.7-4.7
					c-1-4.4-3.7-11.5-8.5-15.6C666.1,793.4,655.2,803.3,655.2,803.3z"/>
			</g>
			<g>
				<path class="st8" d="M615.9,796.5c0,0-1.4,23.1-5.8,23.4c-0.7,0-22.7,0-22.7,0h-28.5c0,0,0.3-6.8,8.8-8.5
					c8.1-1.4,22-7.1,26.8-18C599.9,782.3,615.9,796.5,615.9,796.5z"/>
			</g>
			<g>
				<g>
					<path class="st8" d="M627.7,654.1c-1,12.9-1,23.1,0.3,27.8c5.8,21.4-10.5,118.4-10.5,118.4c-12.2,5.8-29.2,0-29.2,0
						c1-13.6-5.4-133.3-11.2-206.5c-2.4-30.9-4.4-52.2-4.4-52.2l72.6-8.5C645,532.6,631.5,609.6,627.7,654.1z"/>
				</g>
				<g>
					<path class="st8" d="M645,532.6c0,0-13.9,77-17.3,121.4l-50.9-60.7c-2.4-30.9-4.4-52.2-4.4-52.2L645,532.6z"/>
				</g>
			</g>
			<g>
				<path class="st9" d="M609.4,549.3c0,0,36.6,214,43.1,255.4c0,0,13.9,3.7,27.8-2c0,0,1.7-99.4-3.1-129.2
					c-4.7-29.8,2.7-122.4-5.1-131.2S609.4,549.3,609.4,549.3z"/>
			</g>
			<g>
				<path class="st10" d="M613.5,366.8c0,0-2.7,19-1.7,24.8c1.4,5.8,20,8.8,28.1,4.1c7.8-4.7,5.4-6.4,5.4-6.4s-1.4-21.7-2.4-23.4
					C642,364.1,613.5,366.8,613.5,366.8z"/>
			</g>
			<g>
				<path class="st11" d="M674.2,482.8c2.4-23.7,1.7-41.7-0.3-55.3c-6.8-39.7-28.5-41-28.5-40.7c0,5.4-11.5,10.2-20.7,9.5
					c-7.8-0.7-12.9-6.4-12.9-9.5c0,0,0,0-0.3,0c-2,0-11.2,0.3-20,1.7c-6.4,1-12.5,3.1-15.3,5.8c-1.4,1.7-6.8,5.8-13.6,11.5
					c-17.3,14.9-44.1,39.7-42.7,54.6c0,0,33.2,24.4,54.3,9.2c-1,39.7-8.5,81.7-6.4,81.7c0,0,11.9,10.2,47.5,10.2
					c19.3,0,33.6-1.7,43.4-3.7c13.2-2.7,18.7-5.8,18.7-5.8C679.6,552,673.2,490.9,674.2,482.8z"/>
			</g>
			<g>
				<path class="st12" d="M676.6,552c0,0-5.4,3.1-18.7,5.8c-18.3-8.1-54.9-29.2-56.3-64.8c-2-47.1,55.6-75.3,55.6-75.3
					s7.8,4.4,16.6,9.5c2.4,13.6,3.1,31.5,0.3,55.3C673.2,490.9,679.6,552,676.6,552z"/>
			</g>
			<g>
				<path class="st7" d="M613.1,368.8c0,0,7.5,10.2,14.9,10.5c7.8,0,15.6-10.2,15.6-10.2L613.1,368.8z"/>
			</g>
			<g>
				<path class="st10" d="M612.5,368.5c2,1.7,6.4,3.7,10.2,5.1c2.7,1,5.8,1,8.8,0.3c4.4-1.4,10.9-3.7,12.5-4.7
					c3.7-2.4,3.7-7.1,3.7-13.6c0.3-7.8,1-13.9,0-18.7c-1-5.4-4.4-8.5-13.9-9.2c-17.6-1.7-25.1,2.7-25.1,8.8c0,1.7,0,3.1-0.3,4.4
					C607.4,359.3,609.1,365.8,612.5,368.5z"/>
			</g>
			<g>
				<path class="st8" d="M608.4,338.3c0,0,2.7-4.4,8.1-2.7c5.4,1.7,6.1,6.4,15.3,5.4c9.2-0.7,11.5-5.1,13.2-3.1
					c1.7,2,2.7,15.3,2.7,15.3s18.7-42.4-19-42.4c0,0-39-2.4-20.3,40.7L608.4,338.3L608.4,338.3z"/>
			</g>
			<g>
				<path class="st10" d="M539.9,378.7L539.9,378.7L539.9,378.7z"/>
			</g>
			<g>
				<path class="st7" d="M626.7,509.2c0,0-5.1,3.7-12.2,3.7c0,0-7.5-8.1-13.6-15.9c-4.1-5.1-7.5-10.2-8.1-12.5
					c-1.7-6.4-36.6-8.5-40.7-12.9c-4.4-4.7,17.3-16.3,17.3-16.3s35.3,5.4,40.4,12.2c2,2.7,5.1,9.8,8.1,17.6
					C622.3,496.7,626.7,509.2,626.7,509.2z"/>
			</g>
			<g>
				<path class="st12" d="M577.5,412.9c0,0,6.8-12.9,9.8-12.5c3.4,0.3-7.5,26.8-8.5,39.7S577.5,412.9,577.5,412.9z"/>
			</g>
			<g>
				<path class="st10" d="M598.2,501.8c-4.7,11.2-10.5,21.4-11.5,22.7l0,0l0,0c-1,0-10.9-0.3-11.9-4.1c0,0-0.3-13.6,0.3-24.1
					c0.3-4.7,0.7-8.8,1.4-11.2c0,0-52.2-0.3-51.5-15.3c1-14.9,28.1-22.7,44.1-14.9c0,0,21,7.5,31.9,17.6
					C606.4,477.7,603,490.3,598.2,501.8z"/>
			</g>
			<g>
				<path class="st9" d="M526.7,449.2c0,0-7.1,10.2-5.4,19.7c1.7,9.5,21.4,14.6,35.6,15.3c0,0,39.7-9.2,33.6-25.1
					C589.1,456,526.7,449.2,526.7,449.2z"/>
			</g>
			<g>
				<path class="st9" d="M540.9,323.4c0,0-6.4-12.9-21.7-5.1c-15.3,7.8-0.3,37.6-8.5,45.1c-8.1,7.5,3.1,12.2,1.4,17.6
					c-1.7,5.4,3.1,11.5,13.6,10.9c10.9-0.7,22,0,26.8-9.5c4.7-9.5,3.7-29.8,2-32.9C552.8,346.8,540.9,323.4,540.9,323.4z"/>
			</g>
			<g>
				<path class="st10" d="M565.7,394.3l-26.1-15.6c0,0,0.7-0.7,2.7-6.4c0.7-2.4,1.4-4.4,1.4-6.1v-0.3c0.3-2.4,0-3.7,0-3.7l5.8,2
					l10.5,3.7c0,2.7,0.3,4.4,0.7,5.8c1.4,3.1,4.1,3.1,4.1,3.1L565.7,394.3z"/>
			</g>
			<g>
				<path class="st7" d="M561.3,373.6c-10.2,1-15.9-5.8-17.3-7.5c-0.3-0.3-0.3-0.3-0.3-0.3s0,0,0.3,0c0.7-0.3,3.1-1,5.8-1.7
					l10.5,3.7C560.2,370.5,560.6,372.2,561.3,373.6z"/>
			</g>
			<g>
				<path class="st10" d="M561.6,369.9c0,0-22.7,2.4-23.1-12.9c-0.3-15.3-3.7-22.4,11.9-23.7c15.6-1.4,19.3,4.4,20.3,9.5
					C573.5,359,568,369.2,561.6,369.9z"/>
			</g>
			<g>
				<path class="st9" d="M551.4,341c-8.1-2-5.1,12.2-7.1,11.2c-2.4-1-6.1-1-5.4,1.7c0.7,2.7,1.4,3.7,2,5.4c0.3,1.7,0,5.1-2,4.4
					c-2-0.7-19.3-20.7-7.1-35.9c12.2-15.6,48.8-6.1,37.3,10.2C567.4,341,557.2,342.4,551.4,341z"/>
			</g>
			<g>
				<path class="st6" d="M580.6,455.3c0,0-6.8,3.7-17.6,3.4c-6.8,0-21.4-3.1-30.5-6.4c-5.4-2-8.8-4.1-8.5-5.8
					c0.7-2.4,5.1-21.4,9.5-39c3.7-15.9,7.5-30.9,7.5-30.9s10.5,7.5,16.6,4.7s5.4-5.8,5.4-5.8s7.1-1,9.2-0.7
					c3.1,0.3,14.2,4.4,14.2,4.4s1.4,4.1-2.4,10.5c-3.1,5.4-6.4,6.4-6.4,6.4S586.7,425.1,580.6,455.3z"/>
			</g>
			<g>
				<path class="st10" d="M546.7,429.5c0,0,6.4-1.4,9.2,0.3s3.4,4.4,1.4,5.4c-5.8,3.4-11.5-0.3-11.5-0.3L546.7,429.5z"/>
			</g>
			<g>
				<path class="st4" d="M532.4,452.3c-5.4-2-8.8-4.1-8.5-5.8c0.7-2.4,5.1-21.4,9.5-39c1.4-2.4,2-3.7,2-3.7S543.3,440.4,532.4,452.3
					z"/>
			</g>
			<g>
				<path class="st10" d="M541.2,378.7c0,0-20,4.4-28.1,35.6c-0.7,3.1,0,6.4,2,8.8c3.7,4.1,11.5,9.8,30.5,12.2
					c2,0.3,2.4-5.1,2.4-5.1c-0.3,0.3-12.5-8.1-18-12.5c-1-0.7-1-2.7-0.3-3.7c1.7-2.7,4.7-7.5,5.8-9.8
					C536.8,400.4,546.7,380.4,541.2,378.7z"/>
			</g>
			<g>
				<path class="st6" d="M540.9,376.6c0,0-11.9,0.7-21.4,13.6c0,0,3.4,11.9,18.7,14.9C537.9,405.5,547.4,384.1,540.9,376.6z"/>
			</g>
			<g>
				<path class="st2" d="M598.2,501.8c-4.7,11.2-10.5,21.4-11.5,22.7c0,0,0,0-0.3,0c-1,0-10.9-0.3-11.9-4.1c0,0-0.3-13.6,0.3-24.1
					C576.9,498.1,582.6,502.5,598.2,501.8z"/>
			</g>
			<g>
				<path class="st2" d="M626.7,509.2c0,0-5.1,3.7-12.2,3.7c0,0-7.5-8.1-13.6-15.9c7.1-3.1,14.2-9.8,17-12.2
					C622.3,496.7,626.7,509.2,626.7,509.2z"/>
			</g>
			<g>
				<path class="st13" d="M601.6,539.1c-0.3,1.4-1.4,2-2.7,1.7c-3.1-0.7-8.1-1.7-10.2-2.4c-3.1-1-8.8-4.7-12.2-5.8
					c-1-0.3-3.7-1.4-5.1-2c-1-0.3-1.4-1.4-1-2.4c0.7-2,1.7-5.1,3.1-7.8c0.3-0.3,0.7-1,1.4-1c1.7,1.4,4.1,2.7,7.5,2.7
					c2.7,0,5.1-0.7,6.8-1.4c0.3,0.3,4.4,8.8,7.5,9.8C598.9,531.6,602.6,534.3,601.6,539.1z"/>
			</g>
			<g>
				<path class="st13" d="M645.7,509.2c0.7,1,0,2.4-1,3.1c-2.7,1.4-7.5,3.7-9.5,4.4c-3.1,1-9.8,2-12.9,3.1c-1,0.3-3.7,1-5.4,1.7
					c-1,0.3-1.7-0.3-2.4-1c-0.7-1.7-2-5.1-2.4-8.1c0-0.7,0-1,0.3-1.7c2,0,4.7-0.3,7.5-2.4c2-1.7,3.4-3.7,4.4-5.4
					c0.3,0.3,8.8,4.4,11.9,3.4C638.9,505.2,643.3,504.8,645.7,509.2z"/>
			</g>
			<g>
				<path class="st11" d="M603.3,492.3c0,0-1.4,8.8-7.1,12.9c0,0-23.1-3.1-44.4-8.5c-15.9-4.1-30.9-9.2-34.9-15.3
					c-10.2-14.2,5.4-31.9,5.4-31.9s29.5,14.2,61.7,31.9C590.1,484.8,596.9,488.6,603.3,492.3z"/>
			</g>
			<g>
				<path class="st10" d="M568.7,505.2c0,0-6.8,0.7-9.5,3.1c-2.7,2.7-6.4,10.2-3.7,13.2c2.7,3.1,16.3-3.7,16.6-4.7
					C572.1,515.7,568.7,505.2,568.7,505.2z"/>
			</g>
			<g>
				<path class="st12" d="M603.3,492.3c0,0-1.4,8.8-7.1,12.9c0,0-23.1-3.1-44.4-8.5c10.2-8.8,23.4-13.2,31.9-15.3
					C590.1,484.8,596.9,488.6,603.3,492.3z"/>
			</g>
			<g>
				<path class="st11" d="M681.7,398c-4.7-10.9-34.9-11.5-34.9-11.5c-15.3,40.4-19,67.2-23.1,84.1c-0.7,0-1.4,0-1.7,0
					c0,0-21.7,8.5-53.9,31.9c0,0-3.4,9.2,2.7,17c0,0,55.6-12.2,70.9-21.4l0,0l0.3-0.3c0.3,0,0.3-0.3,0.7-0.3
					C692.8,464.8,688.1,413.9,681.7,398z"/>
			</g>
		</g>
		<g>
			<path class="st8" d="M558.2,608.3c-2,0.3-6.1,1-6.1,1l-2-19.7C549.7,589.3,557.2,603.2,558.2,608.3z"/>
		</g>
		<g>
			<g>
				<path class="st10" d="M552.4,592.3c0,0,15.6,5.4,13.2,23.4c0,0-1.4,7.1-5.8,4.1c-4.4-3.4-2.4-2.7-8.8-7.1
					c-6.4-4.4-10.5-11.5-9.8-17L552.4,592.3z"/>
			</g>
			<g>
				<path class="st6" d="M553.1,593.7l-9.2,11.2c-0.3,0.7-1,0.7-1.7,0.7c-8.5-1.7-38.3-20.7-48.2-28.5c-1-0.7-2-1.7-2.4-2
					c-3.7-3.7-16.3-22-25.1-38.3c-5.1-9.5-9.2-18-9.5-23.1c-1-17.3,8.1-41.7,8.1-41.7c27.1,9.5,29.8,31.2,29.8,31.2l14.9,56
					l42.4,31.9C553.8,591.3,554.1,592.7,553.1,593.7z"/>
			</g>
			<g>
				<path class="st4" d="M494.1,576.7c-1-0.7-2-1.7-2.4-2c-3.7-3.7-16.3-22-25.1-38.3c-1-9.8-0.3-19,3.7-25.4
					C470.4,510.9,493.4,551.6,494.1,576.7z"/>
			</g>
			<g>
				<path class="st10" d="M478.5,737.8l-4.7,19.3L471,769l-9.5,39.7c0,0-8.1,2.4-16.6,0c0,0-3.1-13.2-3.1-29.5
					c0-8.5,0.7-18,3.4-26.8c1-3.7,2.4-7.1,4.1-10.5C462.2,714.4,478.5,737.8,478.5,737.8z"/>
			</g>
			<g>
				<path class="st9" d="M486.3,819.9h-44.4c0,0-0.7-6.8,1.4-13.2c0.3-1,0.7-2,1-2.7c0,0,9.8,2.4,18.7,0c0,0,8.1,6.8,12.9,8.8
					C480.5,815.2,486,813.8,486.3,819.9z"/>
			</g>
			<g>
				<path class="st7" d="M473.8,757.2L471,769c-4.7,3.1-15.3,8.8-29.2,10.2c0-8.5,0.7-18,3.4-26.8c4.1-2,8.1-3.1,11.9-2.7
					C465.6,751.1,471,754.4,473.8,757.2z"/>
			</g>
			<g>
				<path class="st8" d="M463.2,819.9h-21.4c0,0-0.7-6.8,1.4-13.2C448.3,808.4,459.5,812.8,463.2,819.9z"/>
			</g>
			<g>
				<path class="st10" d="M442.9,737.8l-4.7,19.3l-2.7,11.9l-9.5,39.7c0,0-8.1,2.4-16.6,0c0,0-3.1-13.2-3.1-29.5
					c0-8.5,0.7-18,3.4-26.8c1-3.7,2.4-7.1,4.1-10.5C427,714.4,442.9,737.8,442.9,737.8z"/>
			</g>
			<g>
				<path class="st9" d="M408.6,804c0,0,9.8,2.4,18.7,0c0,0,8.1,6.8,12.9,8.8c4.7,2,10.2,1,10.9,7.1h-44.4
					C406.3,819.9,405.3,811.1,408.6,804z"/>
			</g>
			<g>
				<path class="st7" d="M438.5,757.2l-2.7,11.9c-4.7,3.1-15.3,8.8-29.2,10.2c0-8.5,0.7-18,3.4-26.8c4.1-2,8.1-3.1,11.9-2.7
					C430,751.1,435.4,754.4,438.5,757.2z"/>
			</g>
			<g>
				<path class="st12" d="M487.7,755.8c-1,4.1-4.7,6.8-8.8,6.8h-71.6c-5.4,0-9.5-4.4-9.2-9.8c0.7-9.8,3.4-25.8,4.7-36.3
					c0.3-4.4,0.7-8.1,0.3-9.8c-7.1-47.8-13.2-104.1-12.5-114.6c0-1.4,0.3-2.4,0.3-2.4s5.1-0.3,13.2-0.7c23.1-1,68.8-0.7,76.6,14.2
					c7.8,15.3,12.5,117,12.5,117C494.4,729.3,490.4,746.3,487.7,755.8z"/>
			</g>
			<g>
				<path class="st14" d="M402.9,716.1c0.3-4.4,0.7-8.1,0.3-9.8c-7.1-47.8-13.2-104.1-12.5-114.6c0-1.4,0.3-2.4,0.3-2.4
					s5.1-0.3,13.2-0.7c11.9,7.1,19.7,19,19.7,19S421.5,696.8,402.9,716.1z"/>
			</g>
			<g>
				<path class="st2" d="M447.3,392.6c-5.8-1.4-9.2,3.1-9.2,8.5c0,5.4,4.4,9.5,9.5,9.5c5.4,0,9.5-6.1,9.5-11.5
					C457.5,393.9,452.4,393.9,447.3,392.6z"/>
			</g>
			<g>
				<path class="st2" d="M444.3,447.5c0,0-29.8-26.8-2.7-45.8c0,0,8.1-2,12.2-1.4c0,0,14.6-4.4,23.1,5.8c8.5,9.8,12.2,17.3,5.1,26.1
					C474.4,440.7,444.3,447.5,444.3,447.5z"/>
			</g>
			<g>
				<path class="st10" d="M410.3,609.3c0,0,7.5,14.6-6.8,26.1c0,0-6.1,4.1-7.1-1.4c-1-5.4,0-3.4-1.4-11.2c-1.4-7.5,0.3-15.6,4.7-19
					L410.3,609.3z"/>
			</g>
			<g>
				<path class="st10" d="M468.7,447.2c0,0-0.3,4.1-1,9.5c-0.3,2.7-0.7,5.8-1.4,8.8c-0.3,2-0.7,4.4-1,6.4l-9.2,31.2l-21.7-34.9
					c0,0,5.1-4.1,11.9-27.1c0-0.3,0-0.3,0-0.3L468.7,447.2z"/>
			</g>
			<g>
				<path class="st6" d="M481.2,600.8c0.3,3.4-0.7,4.1-0.7,4.1s-13.2,4.7-46.8,3.1c-3.7-0.3-7.1-0.3-10.2-0.7
					c-21.7-1.4-33.2-2.7-33.2-2.7s-17.6-40.7,15.6-90.9c3.7-5.8,8.1-11.5,13.2-17.3c5.4-6.1,6.4-14.2,8.5-22c0.7-2.4-1-2.7-0.3-4.7
					c0,0,6.1-1.7,6.8-1.7c3.4,3.1,7.8,8.8,19.3,10.2c7.5,0.7,10.5-3.4,11.5-6.1c3.1,1,5.8,2.7,8.5,4.1c20.3,9.8,22.4,28.8,22.4,28.8
					s-18.7,61.7-20,69.2C475.5,577.4,479.9,582.8,481.2,600.8z"/>
			</g>
			<g>
				<path class="st7" d="M467.7,456.7c-0.3,2.7-1.4,9.8-2,12.9c-23.1-8.8-20-26.5-19.3-28.8c0-0.3,0-0.3,0-0.3
					S458.8,449.2,467.7,456.7z"/>
			</g>
			<g>
				<g>
					<path class="st10" d="M472.7,459.7c0,0-26.5,1-26.8-15.6c-0.3-16.6-3.7-27.5,12.9-28.8c16.6-1.4,20.3,5.1,21.7,10.5
						C481.9,431.2,479.5,459.1,472.7,459.7z"/>
				</g>
			</g>
			<g>
				<path class="st2" d="M474.8,414.3c0,0-1.7,26.1-31.9,23.1C442.9,437.3,443.6,401.4,474.8,414.3z"/>
			</g>
			<g>
				<path class="st2" d="M468.7,415.6c0,0,9.2,11.2,13.2,14.6C481.9,430.6,492.1,416,468.7,415.6z"/>
			</g>
			<g>
				<path class="st2" d="M468.7,415.6c0,0,8.1,13.6,12.2,17.3C480.9,432.9,492.1,416,468.7,415.6L468.7,415.6z"/>
			</g>
			<g>
				<path class="st4" d="M423.9,607.3c-21.7-1.4-33.2-2.7-33.2-2.7s-17.6-40.7,15.6-90.9C413.1,529.6,428.7,571.3,423.9,607.3z"/>
			</g>
			<g>
				<path class="st6" d="M434.4,467.9c0,0-25.4,5.1-37,18.3c-8.8,10.2-18.3,59.7-18.3,67.8c0,7.8,8.8,49.2,14.6,57.3
					c0.3,0.7,1,1,1.7,0.7l14.2-1.7c1.4,0,2-1.4,2-2.4l-8.1-52.6l28.5-50.5C432,505.2,449,485.5,434.4,467.9z"/>
			</g>
			<g>
				<path class="st8" d="M544.3,805.7c0,0,2,4.1,7.1,5.4c3.1,0.7,5.8,2.4,7.1,4.4c1.4,2,0,4.4-2.4,4.4h-24.4c-2,0-3.7-1.7-3.4-3.7
					c0.3-1.7,0.3-4.1,0.3-5.4c0.3-3.4,3.7-6.4,3.7-6.4L544.3,805.7z"/>
			</g>
			<g>
				<path class="st4" d="M549.7,744.3c1,18.7-1.4,60.7-1.4,60.7s-1.7,4.7-12.5,5.8c-5.8,0.7-10.9-1-10.9-1c-2-9.8-4.1-19.7-6.1-28.5
					c-13.2-65.1-18.3-105.1-18.3-105.1l52.2-12.2c0,0-2.4,36.6-3.1,61.7C549.7,733.4,549.7,740.2,549.7,744.3z"/>
			</g>
			<g>
				<path class="st3" d="M552.8,663.9c0,0-2.4,36.6-3.1,61.7l-30.9,55.6c-13.2-65.1-18.3-105.1-18.3-105.1L552.8,663.9z"/>
			</g>
			<g>
				<path class="st4" d="M500.2,580.1c0,0-20.3-9.2-35.6-1s-6.1,74.6,15.9,81.1l0,0C480.5,659.8,521.6,673.1,500.2,580.1z"/>
			</g>
			<g>
				<path class="st7" d="M558.9,679.5C558.9,679.5,558.5,679.5,558.9,679.5c-0.7-1-1.4-2.7-2-4.4l0,0c4.1-20,1.4-31.5,1.4-31.5
					c0.3-5.8,4.1-46.5-4.1-65.1c-3.7-9.2-10.2-9.2-10.2-9.2s1.4,14.6,0.7,22.4c-1,7.1,5.8,73.9,7.1,85.1l0,0l0.3,11.2l3.4-0.7h0.3
					l0,0l0,0c0.3-0.3,0.7-0.3,1-1l2.7-4.1C559.2,681.2,559.2,680.2,558.9,679.5L558.9,679.5z M552.4,677.8L552.4,677.8L552.4,677.8
					C552.8,677.8,552.8,677.8,552.4,677.8z"/>
			</g>
			<g>
				<path class="st8" d="M501.9,805.7c0,0,2,4.1,7.1,5.4c3.1,0.7,5.8,2.4,7.1,4.4c1.4,2,0,4.4-2.4,4.4h-24.4c-2,0-3.7-1.7-3.4-3.7
					c0.3-1.7,0.3-4.1,0.3-5.4c0.3-3.4,3.7-6.4,3.7-6.4L501.9,805.7z"/>
			</g>
			<g>
				<path class="st8" d="M518.9,495.3c-5.1,0-11.9,2.4-15.3,5.8c-3.7,3.7-7.5,3.7-10.5,8.1c-3.1,4.4-4.7,9.2-3.1,15.3
					c1.7,6.8,1.4,13.6,5.4,18.7c2,2.4,5.8,2.7,8.1,5.1c4.4,4.1,9.5,5.4,15.3,5.4c10.9,0,17.6-6.4,23.1-14.6
					c4.4-6.4,3.7-10.9,4.7-16.3C550.1,505.5,535.5,495.3,518.9,495.3z"/>
			</g>
			<g>
				<path class="st10" d="M534.1,565.2l-20.7,10.5l-4.1-14.6c0,0,2.7-5.1,3.7-13.2c0.3-3.4,0.7-7.5,0.3-11.9l17,8.8
					c0,0-0.3,1.7-0.7,3.7c-0.3,2.4-0.3,5.8,0.3,9.2C530.7,560.8,531.8,563.2,534.1,565.2z"/>
			</g>
			<g>
				<path class="st4" d="M486,669.7c0,0-4.1,52.6-3.1,136c0,0,4.7,2.4,10.5,3.1c10.9,1,13.2-3.1,13.2-3.1s10.9-40.7,13.6-59
					c2.4-17,19-78,19-78L486,669.7z"/>
			</g>
			<g>
				<path class="st9" d="M548,566.6c-1.7-1-7.8-3.1-16.3-4.7c0,3.1-0.7,5.8-6.1,6.4c-7.1,1-13.2-3.7-16.3-7.1l0,0l0,0
					c0,0-5.1,0.7-10.5,1.7c-2.7,0.7-6.1,1.4-8.8,2.4c-3.4,1.4-6.1,2.7-7.8,4.7l0,0l0,0c-5.4,6.4-14.2,26.5-14.2,26.5
					s14.6,5.4,18.3,8.5v0.7l2.4,19l-6.8,38c0,0.3,0,0.7,0,1c0,2.7,1.7,4.7,4.4,5.4c0,0,0.7,0,1.7,0.3c7.1,1,36.6,4.4,60-1.7
					c5.1-1.4,8.5-6.4,8.1-11.9l-3.7-47.5c2-0.3,4.4-0.7,6.1-1c1.7-0.3,2.7-0.3,3.4,0C561.6,608.3,558.9,571.3,548,566.6z"/>
			</g>
			<g>
				<path class="st8" d="M504.3,636.8c-0.3,13.2-9.2,28.8-16.6,33.2c-1,0-1.7-0.3-1.7-0.3c-2.7-0.7-4.4-3.1-4.4-5.4c0-0.3,0-0.7,0-1
					l6.8-38l-2.4-19c0-0.3,0.3-0.7,0.3-0.7S504.6,613.4,504.3,636.8z"/>
			</g>
			<g>
				<path class="st4" d="M482.9,656.4l1.7-9.8c30.2-43.7,32.6-51.5,19-70.9c-3.7-5.8-10.9-9.2-13.9-9.8c2.7-1,5.8-1.7,8.8-2.4
					c2.7,1.4,5.4,2.7,7.5,4.4C547.4,603.5,482.9,656.4,482.9,656.4z"/>
			</g>
			<g>
				<path class="st10" d="M518.2,600.5c-11.9,0.7-13.6,12.9-13.6,12.9s-19.7,1.7-22.7,3.1c0,0,1.7-4.4,4.4-10.9
					c-2.7-2.4-11.2-6.4-16.6-8.1c-4.4,10.9-6.1,21.7-3.4,32.2c0.3,1,1.4,2,2.4,2c6.4,0.3,27.1,0.3,42.4-12.5h0.3
					c3.7-0.3,7.1-3.7,8.5-8.5c1.4-4.7,1.4-3.4,2.4-6.8C523.3,600.5,518.2,600.5,518.2,600.5z"/>
			</g>
			<g>
				<path class="st7" d="M530.1,558.1c-9.5-0.3-17-9.8-17-9.8l16.6,0.7C529.4,551.3,529.4,554.7,530.1,558.1z"/>
			</g>
			<g>
				<path class="st10" d="M531.1,552c0,0-21.4,2.7-21.7-12.5c-0.3-14.9,8.5-24.8,14.2-24.8c11.9,0.3,13.9,5.1,15.3,9.8
					C539.9,529.9,540.6,551,531.1,552z"/>
			</g>
			<g>
				<path class="st2" d="M525.3,543.5c0,0,0.3,2,5.1,1.4c0,0,4.1-0.3,3.7-2.4C534.1,542.5,530.4,541.1,525.3,543.5z"/>
			</g>
			<g>
				<path class="st8" d="M528.7,515.4c0,0-18.3,0-13.9,12.5c2.7,7.8-6.1,9.2-6.1,9.2l-4.1-12.5l2.7-9.8L528.7,515.4z"/>
			</g>
		</g>
		<g>
			<g>
				<path class="st10" d="M775.9,507.2c-4.4-7.5-7.5-41-10.5-50.2c-2-5.8-7.5-12.5-7.1-12.9c-5.8-3.4-21.7-5.1-21.7-5.1l0,0
					c-0.7,0-1.4-0.3-1.7-0.3c-2-0.3-3.7-1.4-4.1-3.4V435c-0.3-2.4-0.3-4.7-0.3-6.8l0,0c0-3.4,0.3-6.1,0.3-6.1l0,0l-20.7-3.4
					c-0.3,6.4-0.7,11.2-1,14.9c-0.3,2.7-2.4,4.7-5.4,5.1c-0.3,0-0.7,0-1.4,0l0,0c0,0-13.2-0.7-18.3,1c-0.3,0-0.7,0.3-1.4,0.7
					c0.3,0.3-49.2,49.9-47.8,55.6c1.4,5.8,23.1,38.3,30.9,44.1h7.8c0,0-17.3-39.7-17.6-43.1c-0.3-4.7,43.7-31.2,43.7-35.9
					c0-1.7,12.2-2.4,20.3-2.4c8.5,0,24.4-4.4,24.4-4.4s6.8,52.6,15.6,68.2c6.8,12.2,37.3,43.7,37.3,43.7l6.4-5.8
					C804.4,560.8,786.8,525.5,775.9,507.2z"/>
			</g>
			<g>
				<path class="st12" d="M713.5,709.7c3.7,36.6-0.7,84.8-0.7,84.8h-12.5c-19-50.2-19.7-81.7-20.7-93.6c-0.7-6.4-9.2-32.2-17-57
					c-6.4-20.7-12.5-40.7-12.5-48.2c0-17.3,17-44.8,17-44.8s24.8,9.5,39.7,19c5.1,3.1,8.8,6.1,10.2,8.8c3.4,6.8,6.1,56.3-3.4,86.1
					c-5.8,18-2.7,27.5-2.7,27.5C711.8,697.5,712.9,703.6,713.5,709.7z"/>
			</g>
			<g>
				<path class="st14" d="M713.5,664.9c-5.8,18-2.7,27.5-2.7,27.5c1,5.4,2,11.2,2.7,17.3l-51.2-65.8c-6.4-20.7-12.5-40.7-12.5-48.2
					c0-17.3,17-44.8,17-44.8s24.8,9.5,39.7,19c5.1,3.1,8.8,6.1,10.2,8.8C720.3,585.6,723,634.7,713.5,664.9z"/>
			</g>
			<g>
				<path class="st9" d="M700,794.5c0,0-0.7,8.1-1.7,9.8c-1,1.7-5.4,7.5-10.5,9.5c-5.1,2-19.7,1-20.7,6.1h51.2c0,0,0.7-7.8-1.4-13.2
					c-2-5.1-4.4-12.2-4.4-12.2L700,794.5L700,794.5z"/>
			</g>
			<g>
				<path class="st9" d="M785.8,792.8c0,0,5.8,7.8,7.1,10.9c1.4,3.1,10.9,16.3,9.5,16.3c-1,0-26.1,0-26.1,0s-2.7-6.1-2.4-10.5
					c0.3-4.4-3.4-12.2-2.7-17C772.2,788,785.8,792.8,785.8,792.8z"/>
			</g>
			<g>
				<path class="st12" d="M785.8,792.8h-14.2c0,0-55.3-80-57.3-100.4c-2.4-25.4-20-125.8-20-125.8l57-17.6c0,0,5.1,12.9,9.2,25.8
					c1.7,5.8,3.4,11.2,4.4,15.9c2.4,10.2-4.1,48.5-8.5,76c-2,13.6-3.7,24.1-3.7,27.5C752.9,703.6,771.5,704.9,785.8,792.8z"/>
			</g>
			<g>
				<path class="st9" d="M709.8,424.5c0,0.7,0,1,0,1.4C709.8,425.5,709.8,424.8,709.8,424.5z"/>
			</g>
			<g>
				<path class="st9" d="M709.8,422.1c0,0.7,0,1,0,1.7C709.8,423.4,709.8,422.8,709.8,422.1z"/>
			</g>
			<g>
				<path class="st9" d="M710.1,418.7c0,0.3,0,0.7,0,1.4C710.1,419.7,710.1,419,710.1,418.7L710.1,418.7z"/>
			</g>
			<g>
				<path class="st9" d="M759,561.8c1.7,5.4-24.8,8.8-54.6,8.5c-8.5,0-16.3-1-22.7-2.7c-13.6-3.4-21-9.8-15.3-16.6
					c1.7-2,20.3-28.8,20.3-28.8c1-2.4,0-10.2-5.8-29.2c-2.4-7.8,0.7-12.5,1.7-15.6l0,0c0.3-1,0.7-2,0-2.7c-2.7-4.4-6.4-8.8-9.5-12.2
					c-4.4-4.4-8.1-7.5-8.1-7.5s10.9-11.9,17.3-14.9c6.4,6.8,20,18.7,37.3,18.7c14.9,0,29.5-8.1,38.3-14.6c0.7,0.3,1.4,0.7,1.7,1.4
					c5.4,6.4,7.1,18,7.1,18s-17.6,9.8-17.3,12.9c1,8.8,1.7,11.2,1.4,14.6l0,0c0,1-0.3,2.4-1,3.7c-3.1,9.5-9.5,24.1-7.8,29.2
					C742.4,525.2,756.3,554,759,561.8z"/>
			</g>
			<g>
				<path class="st10" d="M684,439.7c0.3,0,0.7,0,1-0.3C684.7,439.7,684.4,439.7,684,439.7L684,439.7z"/>
			</g>
			<g>
				<path class="st10" d="M665.7,540.1c0,0-7.8,9.8-7.8,11.9c0,1.7,1.7,9.5,3.4,9.5c2,0,2.7-6.1,4.1-7.5c1.4-1,6.8-3.4,7.5-5.4
					c0.7-2,0.7-8.5,0.7-8.5L665.7,540.1L665.7,540.1z"/>
			</g>
			<g>
				<path class="st7" d="M709.1,432.9c9.8-1.4,21.7-10.9,21.7-10.9c-6.8-3.7-12.9-4.1-17.6-2.7c-1,0.3-2,0.7-3.1,1L709.1,432.9z"/>
			</g>
			<g>
				<g>
					<path class="st10" d="M705.4,423.4c0,0,24.1,8.1,28.8-7.1c4.7-15.3,11.2-24.1-4.1-30.2c-15.3-5.8-20-1-22.7,3.7
						C704.7,394.6,699.3,421.1,705.4,423.4z"/>
				</g>
				<g>
					<path class="st2" d="M714.2,416.7c0,0-1,1.7-5.4,0.3c0,0-3.7-1-3.1-3.1C705.4,413.9,709.5,413.3,714.2,416.7z"/>
				</g>
			</g>
			<g>
				<path class="st9" d="M770.2,387.8c-2.7-3.4,6.1-10.5-11.9-19.3c-13.6-6.4-18,3.4-19.3,8.5c-8.1-4.7-21.4-18-29.8-9.2
					c-10.2,10.5,1,19.7,1,19.7c3.7,2.7,5.8,2,11.2,3.4c5.8,1.4,2,7.8,2.4,9.8c0.3,2,4.4,6.8,9.5,4.4c5.1-2.4,4.7,6.4-0.3,8.1
					c-1.4,0.3-2.7,8.5-0.7,8.8c1.7,0.3,7.8,0.3,8.5-4.7c0.3-3.1,4.1-4.4,8.1-7.8c2.7,2.7,6.8,4.1,8.8,3.7c3.1-0.3,3.4-3.1,10.2-7.5
					C774.9,401.1,772.9,391.6,770.2,387.8z"/>
			</g>
			<g>
				<path class="st8" d="M681.7,567.6c-13.6-3.4-21-9.8-14.9-16.6c1.7-2,20.3-28.8,20.3-28.8S692.2,552.3,681.7,567.6z"/>
			</g>
		</g>
		<g>
			<g>
				<path class="st10" d="M731.5,437.3c0.3,0.3,1,0.7,1.7,1C732.5,438,732.2,437.7,731.5,437.3z"/>
			</g>
			<g>
				<path class="st10" d="M733.2,438.4c0.3,0,0.3,0.3,0.7,0.3C733.9,438.7,733.5,438.4,733.2,438.4z"/>
			</g>
			<g>
				<path class="st10" d="M804.4,560.8c0,0,10.9,2.7,12.2,4.4c1.4,1.4,5.8,13.2,4.4,13.6c-7.8,0.7-11.9-3.7-11.9-3.7
					c-4.7-5.1-11.9-6.1-11.5-9.8C798,561.5,804.4,560.8,804.4,560.8z"/>
			</g>
			<g>
				<g>
					<path class="st15" d="M769.8,819.9l-2-217.7c0,0-1.7-15.6-15.6-15.6c-14.6,0-15.6,15.6-15.6,15.6s0.3,1.4,1.7,1.4
						c1.7,0,1.7-1.4,1.7-1.4s0.7-12.2,11.9-12.2c10.5,0,11.9,12.2,11.9,12.2v217.7H769.8z"/>
				</g>
				<g>
					<path class="st15" d="M762.4,819.9h9.2l-0.7-9.5c0,0,0-1.4-1.7-1.4s-5.1-0.3-5.4,0.7C763,810.7,762.4,819.9,762.4,819.9z"/>
				</g>
			</g>
			<g>
				<path class="st10" d="M752.2,575l-0.7,3.1c0,0-15.3,0-19,16.3c0,0-1,6.8,4.1,5.4s4.1-5.1,11.2-6.8c7.1-2,11.5-3.4,12.5-8.5
					l1-5.8L752.2,575z"/>
			</g>
			<g>
				<path class="st11" d="M806.8,440.1c0,0-4.1,15.9-7.5,30.5c-1.4,5.8-2.7,11.5-3.7,15.9c-1,4.4-1.4,7.5-1.4,7.8
					c3.1,5.1-2.4,35.3-6.8,46.1c-0.3,1-1,2-1.7,3.4c-6.1,12.2-22.7,35.9-22.7,35.9s-4.7,0.3-7.8-0.7c-2.4-1-4.4-4.1-4.4-4.1
					c1.4-2.4,7.5-30.2,14.9-46.1c3.4-6.8,8.1-68.8,14.6-77.3C785.8,444.8,806.8,440.1,806.8,440.1z"/>
			</g>
			<g>
				<path class="st12" d="M794.2,494.3c3.1,5.1-2.4,35.3-6.8,46.1c-0.3,1-1,2-1.7,3.4c-5.8-26.1,3.7-63.1,3.7-63.1
					C791.9,481.8,793.9,494,794.2,494.3z"/>
			</g>
			<g>
				<path class="st8" d="M837,796.2c0,0,1.7,23.7-3.1,24.1c-0.7,0-22.7,0-22.7,0h-28.5c0,0,0.3-6.8,8.8-8.5c8.1-1.4,22-7.1,26.8-18
					C823.8,782.3,837,796.2,837,796.2z"/>
			</g>
			<g>
				<path class="st8" d="M879.7,796.2c0,0,1.7,23.7-3.1,24.1c-0.7,0-22.7,0-22.7,0h-28.5c0,0,0.3-6.8,8.8-8.5
					c8.1-1.4,22-7.1,26.8-18C866.5,782.3,879.7,796.2,879.7,796.2z"/>
			</g>
			<g>
				<path class="st9" d="M838.3,739.2c0.7,9.8,2,22.7,1.7,34.3c-0.7,16.3-1.4,29.8-1.4,29.8c-10.5,3.7-30.2-0.7-30.2-0.7
					s-6.8-41-12.5-73.6c-2.7-14.6-4.7-27.1-5.4-33.2c-2.7-19.3,2.7-122.1,2.7-122.1s28.8-18.7,40.7-8.8c11.9,9.5,19.3,19,0,123.4
					C832.2,696.1,836.6,716.8,838.3,739.2z"/>
			</g>
			<g>
				<path class="st8" d="M838.3,739.2c0.7,9.8,2,26.1,1.4,37.6c-10.2-10.5-29.8-32.9-44.1-47.5c-2.7-14.6-4.7-27.1-5.4-33.2
					c-2.7-19.3,2.7-122.1,2.7-122.1s28.8-18.7,40.7-8.8c11.9,9.5,19.3,19,0,123.4C832.2,696.1,836.6,716.8,838.3,739.2z"/>
			</g>
			<g>
				<path class="st9" d="M819,575.7c0,0,2.7,102.8,6.8,121.8c4.1,19,25.1,106.2,25.1,106.2s19.7,1.7,30.2-2.7c0,0-0.7-40.4-4.1-64.1
					c-3.4-22-9.2-42.4-8.5-50.5c11.2-105.8,3.1-114.3-9.5-123.1C846.5,555,819,575.7,819,575.7z"/>
			</g>
			<g>
				<path class="st10" d="M858.3,584.9c0,0-6.8,13.9,6.4,24.4c0,0,5.8,4.1,6.4-1c1-5.1,0-3.4,1.4-10.5s-0.3-14.6-4.4-17.6
					L858.3,584.9z"/>
			</g>
			<g>
				<path class="st10" d="M800.4,416.7c0,0,7.8,12.2,6.4,23.4l11.9,28.1l21-32.2c0,0-11.2-12.2-15.3-28.8L800.4,416.7z"/>
			</g>
			<g>
				<path class="st10" d="M797,426.8c0,0,28.8,1.4,29.5-15.9c0.7-17.3,8.5-28.8-13.2-30.5c-17.6-1.4-23.7,6.1-25.1,11.9
					C786.1,398,786.1,426.2,797,426.8z"/>
			</g>
			<g>
				<path class="st11" d="M867.5,580.8c-6.1,0.7-14.6,1.4-25.1,2c-2,0-4.1,0.3-6.4,0.3c-31.2,1.7-43.7-3.4-43.7-3.4
					s-0.7-0.7-0.7-4.4c1.4-19,5.4-24.4,4.7-28.1c-1-8.1-20.7-73.9-20.7-73.9s-0.3-20.7,22.7-30.5c2.4-1,5.1-2,7.8-2.7
					c1,2.7,3.7,7.1,10.9,6.4c10.5-1.4,18-7.5,21.4-10.5c0.7,0,0.7,0,0.7,0c0.7,2.4,1.4,4.4,2,6.8c2,8.1,3.1,17,8.1,23.4
					c5.1,6.4,9.2,12.5,12.9,18.7c3.1,5.1,5.8,10.2,7.8,14.9C890.6,545.2,875,580.1,867.5,580.8z"/>
			</g>
			<g>
				<path class="st12" d="M867.5,580.8c-6.1,0.7-14.6,1.4-25.1,2c-3.1-50.9,17.6-99.7,17.6-99.7c0.7,0.7,1.4,1,2.4,1.7
					c3.7,3.4,6.1,8.8,7.8,14.9C876.3,522.8,871.2,560.5,867.5,580.8z"/>
			</g>
			<g>
				<path class="st1" d="M787.5,410.6c0,0-5.8,22.4,4.1,25.4c9.5,3.1,34.9,0.7,34.9-26.8c0,0-13.2,7.8-19.7,7.8
					c-6.4-0.3-10.5-3.7-16.3-1C790.5,416,788.1,415.6,787.5,410.6z"/>
			</g>
			<g>
				<path class="st11" d="M839.7,436c0,0,20,0.3,30.9,14.2c8.1,10.5,17,67.8,17,76.3s-9.2,56-14.2,61c0,0-3.4,1-7.8,0
					c-4.7-1-7.5-3.7-7.5-3.7s2.7-52.9,2.7-57.7c0-7.1-22.4-50.9-22.4-50.9S826.1,454.3,839.7,436z"/>
			</g>
			<g>
				<path class="st1" d="M824.8,385.8c-0.3-1.7-2.7-2.7-2.7-2.7c-16.3-7.1-28.1,0.7-28.1,0.7c9.8-13.2,33.9-10.5,39,1.4
					c8.1,19.7-6.8,23.7-6.8,23.7s-15.3-6.4-6.4-14.2c3.1-2.7,4.4-5.1,4.7-7.1l0,0l0,0C824.8,387.2,824.8,386.5,824.8,385.8z"/>
			</g>
			<g>
				<path class="st2" d="M799,421.1c0,0-0.7,2-5.4,1.4c0,0-4.1-0.3-3.7-2.4C790.2,420.1,793.9,418.7,799,421.1z"/>
			</g>
		</g>
		<g>
			<path class="st15" d="M1036.4,823H24.1c-0.7,0-1.4-0.7-1.4-1.4l0,0c0-0.7,0.7-1.4,1.4-1.4h1012c0.7,0,1.4,0.7,1.4,1.4l0,0
				C1037.8,822.3,1037.1,823,1036.4,823z"/>
		</g>
	</g>
</g>
</svg>
