<?xml version="1.0" encoding="utf-8"?>
<!-- Generator: Adobe Illustrator 25.2.1, SVG Export Plug-In . SVG Version: 6.00 Build 0)  -->
<svg version="1.1" id="Capa_1" xmlns="http://www.w3.org/2000/svg" xmlns:xlink="http://www.w3.org/1999/xlink" x="0px" y="0px"
	 viewBox="0 0 1080 1080" style="enable-background:new 0 0 1080 1080;" xml:space="preserve">
<style type="text/css">
	.st0{fill:none;stroke:#2E4166;stroke-width:0.5;stroke-linecap:round;stroke-linejoin:round;stroke-miterlimit:10;}
	.st1{fill:#020F2B;}
	.st2{fill:#F27294;}
	.st3{fill:#003A69;}
	.st4{opacity:0.21;enable-background:new    ;}
	.st5{fill:none;stroke:#FFFFFF;stroke-width:0.3283;stroke-miterlimit:10;}
	.st6{fill:#BD4064;}
	.st7{fill:#323A8A;stroke:#323A8A;stroke-width:1.2866;stroke-miterlimit:10;}
	.st8{fill:#323A8A;}
	.st9{fill:none;stroke:#FFFFFF;stroke-width:0.5602;stroke-miterlimit:10;}
	.st10{opacity:0.21;}
	.st11{fill:#993C5C;}
	.st12{fill:#FFFFFF;}
	.st13{fill:#D3296E;}
	.st14{fill:#7CBFB1;}
	.st15{fill:#66CFFF;}
	.st16{fill:#55A695;}
	.st17{fill:#71B0CD;}
	.st18{clip-path:url(#SVGID_2_);}
	.st19{fill:#4892B5;}
	.st20{opacity:0.28;fill:#3497B5;enable-background:new    ;}
	.st21{fill:#2E4166;}
	.st22{fill:none;stroke:#2E4166;stroke-width:0.6164;stroke-miterlimit:10;}
	.st23{fill:#F38697;}
	.st24{fill:#D65A6F;}
	.st25{fill:#B85369;}
	.st26{fill:none;stroke:#FFFFFF;stroke-width:0.3027;stroke-miterlimit:10;}
	.st27{fill:#E20000;}
	.st28{fill:#C45366;}
	.st29{fill:#656FD6;}
	.st30{fill:none;stroke:#656FD6;stroke-width:2;stroke-miterlimit:10;}
</style>
<g id="OBJECTS">
	<g>
		<g>
			<line class="st0" x1="-11.4" y1="870.6" x2="1197.5" y2="870.6"/>
		</g>
		<g>
			<g>
				<g>
					<g>
						<path class="st1" d="M261,393.7c-21.1-2.5-27,11-27,11c-13.5-5.1-4.6,25.8-4.6,25.8l0,0l6.3,3.8v-0.4l0,0l0,0v-0.4l-0.4-0.4
							l10.6-9.7c0.8-0.4,4.2-2.1,6.3-5.9c1.7-3,5.5-1.3,8-2.1c1.3-0.4,1.3,1.3,2.1,0.4c1.7-0.8,1.7-0.4,2.1-2.1
							C268.7,413.2,270.3,395,261,393.7z M231.9,430.9c0.8,0.4,1.7,0.8,2.5,1.7l-1.3-0.8L231.9,430.9z"/>
						<g>
							<path class="st2" d="M364.5,483.3c0,0-22.8,59.6-32.5,62.5c-9.7,3.4-94.6-48.6-79-66.7c0,0,2.1-7.2,8.9-5.9
								c6.8,1.7,26.2,3.8,64.2,36.3c0,0,22.4-36.7,24.1-40.1"/>
							<path class="st3" d="M321.9,501c0,0-67.2-55.8-81.9-21.5c-8.4,19,78.6,74.8,92.9,76.9l33.4-64.6l-18.6-18.2L321.9,501z"/>
							<path class="st4" d="M265.7,469.3c-11.4-2.5-21.1-0.8-26.2,10.1c-7.2,16.5,56.2,60,83.2,73.1
								C303.3,525.5,284.3,497.6,265.7,469.3z"/>
							<line class="st5" x1="340" y1="482" x2="361.2" y2="502.7"/>
						</g>
						<g>
							<g>
								<g>
									<polygon class="st2" points="274.1,842.7 280.9,869.3 324.8,869.3 324.8,866 299.9,852.9 296.5,843.6 									"/>
									<path class="st6" d="M299.9,852.9c-1.3-0.8-25.8-9.7-25.8-9.7l22.8,0.4L299.9,852.9z"/>
									<path class="st7" d="M299.9,852.9l-7.6,7.2c-2.1,2.1-5.1,2.1-7.2,0l-8.4-7.6l4.2,16.9h44.4V866L299.9,852.9z"/>
								</g>
							</g>
							<g>
								<g>
									<polygon class="st2" points="202.8,841 197.3,868.9 152.9,868.9 152.9,865.5 177.8,852.5 178.7,843.2 									"/>
									<polygon class="st6" points="177.8,852.5 178.7,843.2 203.2,841.9 									"/>
									<path class="st7" d="M177.4,852.5l7.6,7.2c2.1,2.1,5.1,2.1,7.2,0l7.6-7.6l-3,16.9h-44.4v-3.4L177.4,852.5z"/>
								</g>
							</g>
							<g>
								<path class="st8" d="M272,620.1L305,843.6l-32.5,1.7l-32.1-155.9c-2.1-5.9-10.1-5.9-12.2,0L204,841.9l-27.5,1.7
									c0,0-0.4-131.4,8-226.8L272,620.1z"/>
								<g>
									<line class="st9" x1="207" y1="830.5" x2="176.6" y2="830.5"/>
									<line class="st9" x1="303.3" y1="831.3" x2="272" y2="831.3"/>
								</g>
							</g>
							<polygon points="185.4,639.6 281.3,681.8 275.4,639.6 							"/>
						</g>
						<g>
							<path class="st3" d="M223.9,463.8c0,0-32.9,10.1-36.7,37.2c-3.8,27-8.9,138.5-8.9,138.5l103.9,0.8l6.3-109.4
								c-1.7-21.1-10.1-40.1-13.5-46.5c-3-5.5-6.8-11.8-9.3-12.2l-33.4-13.9L223.9,463.8z"/>
						</g>
						<g class="st10">
							<path d="M243.7,566.9c-10.6-19.4-21.1-38.9-32.5-57.4c-5.5-8.9-10.6-17.7-15.6-27c-4.2,5.1-7.6,11.4-8.4,18.6
								c-3.8,27-8.9,138.5-8.9,138.5l103.5,0.8l0.8-10.6C269.9,609.6,255.1,587.6,243.7,566.9z"/>
						</g>
						<g>
							<path class="st2" d="M233.2,440.2l-3.4,20.3l9.3,8.9c4.2,5.9,13.5,3.4,14.4,0.8l0,0l-0.8-16.9l-16.1-16.1c0,0-2.5,1.7-3,2.5
								C233.2,439.8,233.2,440.2,233.2,440.2z"/>
							<path class="st11" d="M236.5,436.8l16.1,16.1L253,463c0,0-15.2-5.1-14.8-17.7"/>
						</g>
						<g>
							<polygon class="st12" points="223.9,463.8 230.6,455 248.8,471.9 242.9,486.7 							"/>
							<polygon class="st12" points="253,460.9 248.8,471.4 253,485 259.4,468.5 							"/>
							<polygon class="st13" points="252.2,482.4 244.6,482.9 248.8,471.4 							"/>
						</g>
						<g>
							<path class="st2" d="M235.3,431.3c-0.4,0.4-0.8,0.8-1.3,0.4c-1.3-1.3-3.8-3.4-5.1,1.7c-1.7,7.2,5.9,6.3,6.3,7.2
								c1.3,2.1,4.6,8.9,10.6,11.8c3.4,1.7,10.1,2.5,14.8,0c3.4-2.1,4.6-8,4.2-38.9L261,411c-2.5,0.8-12.2,12.7-19.9,4.2
								C239.5,419.5,236.5,428.4,235.3,431.3z"/>
							<g>
								<path class="st6" d="M230.2,433l3.8,3.4C234,436,232.7,428.8,230.2,433z"/>
							</g>
						</g>
						<g>
							<path class="st2" d="M349.8,470.2c0,0-2.5-21.5,2.5-19.4c0.8,0.4,3,10.6,3,10.6s9.7-17.7,12.7-16.9c3,0.8-6.3,13.5-6.3,13.5
								s8.4-12.2,10.6-11.4c2.1,0.8-7.2,14.8-7.2,14.8s10.1-15.6,10.1-12.7c0.4,3-7.2,15.2-7.2,15.2s6.3-10.1,9.3-10.6
								c3.4-0.4-14.4,30.8-14.4,30.8"/>
						</g>
					</g>
				</g>
				<g>
					<g>
						<g>
							<g>
								<g>
									<path class="st14" d="M307.9,478.2c-6.8-5.5-11.4-13.5-13.1-22.4c-1.7-8.4-0.4-17.7,2.5-25.8c3.8,2.1,6.8,5.9,8.9,9.7
										C312.6,450.7,313,466,307.9,478.2"/>
								</g>
								<g>
									<g>
										<path d="M299.5,444.4c5.1,11.8,6.8,25.3,8,38c1.3,13.1,2.1,27,0,40.1c0,0.4,0.8,0.8,0.8,0c2.1-13.5,1.3-27.9,0-41.4
											c-1.3-12.7-3-25.8-8-37.6C299.9,443.6,299.5,444,299.5,444.4L299.5,444.4z"/>
									</g>
								</g>
							</g>
							<g>
								<g>
									<path class="st14" d="M313.4,494.3c0.4-5.1,2.1-10.1,4.6-13.9c0.8-1.3,2.1-2.5,3.4-3.8c3-2.1,6.3-3,10.1-3.4
										c0.4,5.1-2.1,10.6-5.9,13.9c-1.7,1.7-3.8,2.5-5.9,3.8C317.6,492.1,316,493.4,313.4,494.3"/>
								</g>
								<g>
									<g>
										<path d="M325.7,479.5c-7.2,6.3-13.1,13.9-16.5,22.8c0,0.4,0.4,0.8,0.4,0.4c3.8-8.4,9.7-16.5,16.5-22.4
											C326.5,479.5,326.1,479,325.7,479.5L325.7,479.5z"/>
									</g>
								</g>
							</g>
						</g>
						<path class="st12" d="M280.1,564.8l16.1-51.5c0.8-2.5,2.5-4.2,4.6-5.1l30.8-12.7c3.8-1.7,6.8,2.5,5.1,6.3l-14.4,42.7
							c-0.8,3-3,5.1-5.5,6.3l-32.9,16.1C283,566.9,280.1,566.1,280.1,564.8z"/>
						<path class="st15" d="M283,566.9l16.5-53.6c0.4-1.7,1.7-3.4,3.8-4.2l30.8-12.7c2.1-0.8,4.2,1.7,3.4,4.2l-14.8,43.9
							c-1.3,3-1.7,4.2-4.6,5.9C307.9,555.5,283,567.8,283,566.9z"/>
					</g>
					<path class="st2" d="M267.4,581.3c28.3-19.4,44.4-34.6,47.3-37.6c1.7-1.7,6.3-6.8,5.9-7.6c-0.8-2.1-10.6,8-10.1,7.6
						c0.4-0.8,12.2-11.4,11.8-12.7c-0.8-2.5-14.4,9.7-14.8,9.7c-3.4,3,13.1-11,13.1-12.7c-0.4-1.7-8.4,3.8-8.9,4.2
						c0,0-6.8,5.5-7.2,5.1c-0.4-0.4,11-15.6,8.9-16.1c-2.1-0.4-9.7,8.9-11.8,11s-7.6,3.8-9.3,5.5c-2.5,2.1-2.5-5.1-1.7-7.6
						c0,0-5.1,5.9-6.8,11c-0.8,2.5-1.3,5.9-1.3,5.9l-24.1,15.6L267.4,581.3z"/>
					<path class="st3" d="M219.2,491.7c0,0-11.4-18.2-22.4-11.8c-18.2,11-21.1,54.1,16.1,108.6c8.4,12.2,31.7,14.4,42.2,3.8
						l38.4-23.7l-16.5-25.8l-24.9,16.9L219.2,491.7z"/>
					<line class="st5" x1="268.7" y1="549.2" x2="283.4" y2="574.9"/>
				</g>
			</g>
			<g>
				<g>
					<path class="st16" d="M627.3,337.5c-0.4-3.4-2.5-8-5.1-10.6c-2.5-2.1-5.9-1.7-8.4-0.4c-2.5,1.3-4.6,4.2-5.9,6.8
						c-0.4-1.3-2.1-3-3.4-3.8c-3-1.7-5.9-0.8-7.2-0.8c-6.3,1.3-7.2,6.3-7.6,8.9"/>
				</g>
				<g>
					<g>
						<g>
							<path class="st14" d="M598.1,273.8c-23.2-17.7-40.1-43.5-46-72.2c-5.9-28.7-3-58.3,5.9-86.2c13.1,6.8,22.8,18.2,30,30.8
								c22.4,36.7,24.9,86.6,10.6,127.1"/>
						</g>
						<g>
							<g>
								<path d="M567.7,162.7c24.5,54.5,35.1,114.9,27.9,174.5c0,1.7,2.1,1.7,2.5,0c7.2-60-3.4-120.8-28.3-175.7
									C569,160.1,566.9,161,567.7,162.7L567.7,162.7z"/>
							</g>
						</g>
					</g>
					<g>
						<g>
							<path class="st14" d="M611.6,286.9c1.7-18.2,7.6-36.7,18.2-51.1c3.8-5.1,7.6-9.7,12.7-13.1c11-8,25.3-10.1,38.9-11.8
								c2.1,19-8,38.4-23.2,50.7c-7.2,5.5-15.2,9.7-22.8,14.4c-7.6,4.2-15.2,8-23.2,12.2"/>
						</g>
						<g>
							<g>
								<path d="M659,231.9c-25.8,21.1-46.5,47.7-60.8,78.1c-0.4,1.3,1.3,2.5,1.7,1.3c13.9-30.4,34.6-56.6,60.4-77.7
									C661.5,232.8,659.8,231.1,659,231.9L659,231.9z"/>
							</g>
						</g>
					</g>
					<g>
						<g>
							<path class="st14" d="M581.7,311.4c-4.6-13.1-12.7-24.9-23.2-33.8c-3.4-3-7.6-5.9-11.8-7.6c-9.7-3.8-20.7-3-31.3-1.7
								c1.7,14.8,12.7,27,26.2,33.4c6.3,3,13.1,4.6,19.4,6.3c6.3,1.7,12.7,3.4,19.4,5.1"/>
						</g>
						<g>
							<g>
								<path d="M537.3,280.5c22,13.1,41.8,29.6,59.6,48.2c0.8,0.8,2.5-0.4,1.7-1.7c-17.7-18.6-38-35.1-60-48.6
									C537.3,278,536,279.7,537.3,280.5L537.3,280.5z"/>
							</g>
						</g>
					</g>
				</g>
				<g>
					<path class="st14" d="M569,337.5c0.4-3,2.1-8,4.6-10.1c2.1-1.7,5.5-1.7,8-0.4c2.5,1.3,4.2,3.8,5.5,6.3c0.4-1.3,2.1-3,3-3.8
						c3-1.7,5.1-0.8,6.3-0.8c5.9,0.8,6.8,5.9,6.8,8.4"/>
				</g>
			</g>
			<g>
				<g>
					<g>
						<g>
							<ellipse class="st17" cx="600.7" cy="587.6" rx="267.8" ry="274.6"/>
							<g>
								<g>
									<defs>
										<ellipse id="SVGID_1_" cx="600.7" cy="587.6" rx="267.8" ry="274.6"/>
									</defs>
									<clipPath id="SVGID_2_">
										<use xlink:href="#SVGID_1_"  style="overflow:visible;"/>
									</clipPath>
									<g class="st18">
										<g>
											<g>
												<path class="st19" d="M309.2,431.3c-2.5,13.1-13.9,22.8-15.6,36.3c-0.8,7.6,1.7,15.2,4.6,22.4
													c8,20.7,16.1,41.4,24.1,62.1c1.3,3.4,3,7.2,5.9,9.7c5.9,4.6,14.4,1.7,22,2.5c8,1.3,14.4,6.8,21.1,11
													c10.6,6.3,23.2,9.3,35.5,11.8c-4.2,12.7-8.4,24.9-12.7,37.6c-0.8,2.5-1.7,5.1-1.3,8c0.4,3.4,2.5,6.3,5.1,8.9
													c11.8,13.9,23.7,27.9,35.5,41.8c3.4,3.8,6.3,7.6,8.4,12.2c2.5,5.9,2.5,12.7,2.1,19c-0.8,22.8-3,45.6-7.2,68
													c-0.8,3.8-1.3,7.6-0.4,11.4c1.3,3.8,4.2,6.3,6.8,8.9c11,10.1,22.4,19.9,33.4,30c6.3,5.9,17.3,11,22,3.8
													c-4.6-9.7-16.9-15.6-18.6-26.2c-1.3-7.2,2.5-14.8,6.3-21.1c18.6-31.7,37.2-62.9,56.2-94.2c-5.9-3-3.4-11.8-0.4-17.7
													c4.2-8.4,8.4-16.9,12.7-25.3c1.7-3.4,3.4-7.2,2.5-10.6c-0.8-3-3-5.1-5.5-7.2c-10.1-8-23.7-12.2-36.7-11
													c-2.1,0-4.6,0.4-5.9-1.3c-1.7-2.1,0-5.1,0-7.6c0.4-5.1-4.6-8.9-8.9-11.8c-12.2-8-24.5-16.1-36.7-24.1
													c-4.6-3-9.7-5.9-14.8-4.6c-2.1,0.4-4.2,2.1-6.8,2.1c-3,0-5.5-2.1-8.4-3.4c-5.9-2.5-12.2,0-18.2,1.7
													c-5.9,1.7-13.5,2.1-17.3-3c5.1-6.3,8.9-13.5,11.4-21.5c-2.1-2.1-5.9,0-8.9,1.7c-11.4,7.2-27.5,5.9-37.6-2.5
													c-0.4-11,0.4-23.2,7.6-31.7c7.2-8.4,22.4-10.1,27.9-0.4c3,5.9,4.6,15.6,11,14.4c3.4-0.8,5.1-5.1,4.6-8.9
													c-0.4-3.8-2.1-7.2-2.1-10.6c-0.4-8,6.3-14.4,12.7-18.6c6.3-4.2,13.9-8,17.7-14.8c1.7-3,2.5-6.8,4.2-9.7
													c3-5.1,8.4-8,13.5-11c16.1-9.3,32.1-18.2,48.2-27.5c1.3,1.7,3,3.8,4.2,5.5c5.9-0.4,7.6-8.9,6.8-14.8
													c-1.3-14.4-4.6-28.7-9.7-41.8c-3,2.1-5.5,3.8-8.4,5.9c-3-7.2-13.5-4.6-20.3-1.3c-6.8,3.4-16.9,5.9-20.3-1.3
													c10.6-6.3,22.4-10.1,34.6-11c1.3,0,2.5,0,3.4-0.8c2.5-1.3,2.5-5.1,1.7-8c-2.5-6.8-9.3-11.4-16.5-12.7
													s-14.4-0.4-21.1,0.4c-7.6,1.3-15.2,2.1-22.8,3.4c-5.1,0.8-10.6,1.3-15.2-0.8c-4.6-2.1-7.6-6.3-11-9.7
													c-3.8-3.4-8.9-5.9-13.1-3.4c-2.1,1.3-3.4,3.4-5.1,5.1c-7.6,8.4-19.9,8.4-30.8,8c-20.7-0.8-41.4-1.7-61.7-2.5
													c-4.6,0-9.3-0.4-13.9,1.3c-5.1,1.7-9.3,5.5-13.1,9.3c-10.1,9.3-19.9,18.6-30,28.3c-2.5,2.1-5.1,5.5-4.2,8.4
													c0.8,3.4,4.6,5.1,8,4.2c3.4-0.4,5.9-2.5,8.9-4.2c15.2-8,33.4-5.5,49.8-2.5c2.5,8.4,3,17.3,1.7,25.8
													c1.3-3.8,2.5-8,3.4-11.8"/>
												<g>
													<path class="st19" d="M307.9,430.9c-2.5,12.7-13.5,22.4-15.6,35.5c-1.3,7.2,0.8,14.4,3.4,21.1c3,8.4,6.3,16.9,9.7,24.9
														c3,8,6.3,16.1,9.3,24.5c3,7.2,5.1,15.2,9.3,22c3,4.6,7.6,6.8,13.1,6.8c8.4,0.4,15.2-0.8,22.8,3.8
														c7.2,4.2,13.1,8.9,20.7,11.8c8.4,3.4,17.3,5.1,25.8,7.2c-0.4-0.4-0.4-1.3-0.8-1.7c-3.8,11-7.6,22.4-11.4,33.4
														c-1.3,3.8-3.4,8-2.5,12.7c0.4,4.2,3.4,7.2,5.9,10.1c7.6,9.3,15.6,18.2,23.2,27.5c7.2,8.4,17.7,17.7,20.7,28.7
														c3,10.6,0.8,23.2,0,34.2c-0.8,11.8-2.1,24.1-4.2,35.9c-1.3,8-5.5,19.4-1.7,27c1.7,3.8,5.1,6.3,8,8.9
														c4.6,4.2,9.3,8,13.5,12.2c8,7.2,16.1,16.5,25.8,21.5c5.9,3,12.7,4.2,16.9-1.7c0.4-0.4,0-0.8,0-1.3
														c-4.6-8.9-14.8-13.9-17.7-23.2c-3-8,1.7-15.6,5.5-22.8c3.8-6.3,7.2-12.7,11-18.6c14.8-25.3,30-50.3,45.2-75.2
														c0.4-0.4,0-1.3-0.4-1.7c-8-5.1,1.3-18.6,4.2-24.1c2.1-4.2,4.2-8.4,6.3-12.7c1.7-3.8,4.2-7.6,5.1-11.8
														c0.8-6.3-3.4-10.6-8-13.9c-6.3-4.6-13.5-7.6-21.1-8.9c-3.4-0.4-7.2-0.8-10.6-0.8c-1.7,0-3.8,0.8-5.9,0.4
														c-3.4-0.8-2.5-3.8-2.1-6.8c0.4-6.3-4.2-10.1-9.3-13.5c-8.4-5.5-16.9-11-25.3-16.5c-6.8-4.2-14.8-11.8-22.8-12.7
														c-5.1-0.4-8.9,3-13.9,1.3c-3.4-1.3-5.9-3.4-10.1-3.4c-9.3,0-21.5,8.9-29.1,0c0,0.4,0,1.3,0,1.7
														c5.5-6.8,9.3-13.9,11.4-22.4c0-0.4,0-1.3-0.4-1.7c-2.1-1.7-4.2-1.3-6.8-0.4c-4.6,2.1-8.4,4.6-13.5,5.9
														c-5.1,0.8-10.6,0.4-15.2-0.8c-2.1-0.8-4.6-1.7-6.8-3c-3.4-2.1-3.4-4.6-3-8.4c0.4-9.7,2.5-22.4,11.8-27.9
														c8.9-5.1,18.6-3,22.8,6.8c1.7,4.2,3.8,11.8,9.7,11.8c6.3,0,7.6-7.6,6.8-12.2c-1.3-6.3-3-11.4,0.8-17.3
														c3-4.6,8-8,12.7-11c7.2-4.6,13.1-8.9,16.5-16.9c3-6.8,5.9-11,12.2-14.8c5.1-3.4,10.6-5.9,16.1-9.3
														c11.8-6.8,23.7-13.5,35.9-20.3c-0.4,0-1.3-0.4-1.7-0.4c1.3,1.7,3,3.8,4.2,5.5c0.4,0.4,0.8,0.8,1.7,0.4
														c8.4-1.7,8.4-12.7,7.6-19c-1.3-13.5-4.6-26.6-9.3-39.3c-0.4-0.8-1.3-1.3-2.1-0.8c-3,2.1-5.5,3.8-8.4,5.9
														c0.4,0,1.3,0.4,1.7,0.4c-8.9-16.9-32.5,11.8-40.1-3c0,0.4-0.4,1.3-0.4,1.7c7.2-4.2,15.2-7.6,23.2-9.3
														c4.2-0.8,8.4-0.8,12.2-1.7c2.1-0.4,3.4-1.3,4.2-3c2.1-4.2-0.4-9.3-3-12.2c-3.8-4.6-9.3-7.6-15.2-8.4
														c-16.5-3-33.8,4.6-50.3,4.6c-9.7,0-13.1-6.8-19.9-11.8c-3.8-3-9.7-5.1-13.9-2.1c-2.1,1.3-3.4,3.8-5.5,5.5
														c-3,3-6.8,5.1-11,5.9c-7.2,1.7-14.4,1.3-22,0.8c-18.2-0.8-36.3-1.7-54.5-2.5c-6.8-0.4-13.9-1.3-20.3,1.7
														c-6.3,3-11.4,8.4-16.5,13.1c-6.8,6.3-13.5,12.7-20.3,19c-3.8,3.4-10.6,8-10.1,13.9c0.4,4.6,5.1,6.8,9.3,6.3
														c3.4-0.4,5.9-2.5,8.9-3.8c4.2-2.5,8.9-3.8,13.5-4.6c9.7-1.7,19.4-0.4,29.1,0.8c1.7,0.4,4.6,0.4,5.9,1.7
														c1.3,1.3,1.7,4.6,1.7,6.3c0.8,5.9,0.8,11.8,0,17.7c0,1.7,2.1,1.7,2.5,0.4c1.3-3.8,2.5-8,3.4-11.8
														c0.4-1.7-2.1-2.5-2.5-0.8c-1.3,3.8-2.5,8-3.4,11.8c0.8,0,1.7,0.4,2.5,0.4c1.3-8.9,0.4-17.3-1.7-26.2
														c0-0.4-0.4-0.8-0.8-0.8c-11.8-2.1-23.7-4.2-35.9-2.5c-5.5,0.8-10.6,2.5-15.2,5.1c-3,1.7-5.9,4.2-9.7,4.2
														c-2.1,0-5.1-3.4-5.1-5.5c0-2.1,3.8-5.5,5.5-6.8c10.1-9.7,20.3-19.4,30.8-29.1c5.5-5.1,11-8,18.6-8
														c7.2,0,14.4,0.4,22,0.8c14.4,0.8,28.7,1.3,43.1,2.1c10.1,0.4,21.5,1.3,30.4-5.1c4.6-3.4,7.6-10.6,14.4-8.4
														c6.3,1.7,9.3,8,14.4,11.8c9.3,6.8,23.2,2.1,33.4,0.4c8.4-1.3,16.9-3,25.3-2.1c7.6,0.8,17.7,5.1,19.4,13.5
														c1.3,5.9-5.9,5.9-9.7,6.3c-3.8,0.4-7.2,1.3-10.6,2.1c-6.8,2.1-12.7,4.6-18.6,8c-0.4,0.4-0.8,1.3-0.4,1.7
														c8.9,16.5,32.5-11.8,40.1,3c0.4,0.4,1.3,0.8,1.7,0.4c3-2.1,5.5-3.8,8.4-5.9c-0.8-0.4-1.3-0.4-2.1-0.8
														c3.8,10.6,6.8,21.1,8.4,32.1c0.8,5.1,1.7,10.6,0.8,15.6c-0.4,2.5-1.3,5.5-3.4,6.8c-2.1,0.8-3.4-2.1-5.1-4.2
														c-0.4-0.4-1.3-0.8-1.7-0.4c-11.8,6.8-23.7,13.5-35.9,20.3c-8.9,5.1-21.1,9.7-26.2,18.6c-3,4.6-3.8,10.1-8,14.4
														s-9.7,6.8-14.4,10.1c-7.2,4.6-13.5,11.8-12.7,21.1c0.4,2.5,1.3,5.1,1.7,7.6c0.8,4.6-3,12.7-7.6,6.8
														c-2.5-3.4-3.4-7.6-5.1-11.4c-3.4-5.9-10.6-8-17.3-7.2c-8,1.3-13.9,7.2-17.3,14.4c-1.7,4.2-2.5,8.9-3.4,13.5
														c-0.4,3.4-1.7,9.7,0,12.7c1.7,3.4,9.7,5.5,13.1,6.8c4.6,1.3,9.7,1.3,14.4,0.4c2.5-0.4,5.1-1.3,7.6-2.1
														c2.5-1.3,5.5-4.2,8.4-3.4c3,0.4,1.7,0.8,0.8,3.4c-0.8,2.1-1.7,4.2-2.5,5.9c-1.7,3.4-4.2,6.8-6.3,10.1
														c-0.4,0.4-0.4,1.3,0,1.7c3.8,4.6,9.3,5.1,14.8,4.2c4.2-0.8,8-2.1,11.8-3c3.4-0.8,6.8-0.4,10.1,0.8
														c1.7,0.8,3,1.7,4.2,2.1c3.4,1.3,5.5,0,8.4-0.8c6.3-1.7,11,1.3,16.1,4.6c8.4,5.5,16.9,11,25.3,16.5
														c3.8,2.5,8,5.1,11.8,7.6c2.1,1.7,4.2,3,5.5,5.5c1.7,3,0.8,5.1,0.8,8c-0.4,6.3,4.6,6.3,9.3,5.9
														c9.3-0.4,18.2,1.7,26.2,5.9c3.8,2.1,8,4.6,10.6,8c4.2,5.9-0.4,12.7-3.4,18.6c-4.2,8-9.3,16.5-12.2,24.9
														c-1.7,5.1-2.1,11.4,3,14.8c0-0.4-0.4-1.3-0.4-1.7c-16.9,27.9-33.8,56.2-50.3,84.5c-5.9,10.1-16.5,23.2-11,35.5
														c1.7,3.8,4.6,7.2,7.6,10.1c2.1,2.1,3.8,3.8,5.9,5.9c0.8,1.3,3,2.5,3,4.2c1.3,1.3,0.8,2.1-0.8,3
														c-1.3,0.8-2.5,0.8-3.8,0.8c-6.8,0-12.2-5.5-16.9-9.7c-5.9-5.5-12.2-11-18.2-16.5c-5.1-4.6-11-8.9-15.6-14.4
														c-6.8-7.6-1.7-20.7-0.4-29.6c2.1-15.2,3.8-30.4,4.6-45.6c0.4-6.8,0.8-13.9,0-20.7c-0.8-6.3-3.8-11.8-8-16.9
														c-11.4-13.9-23.2-27.5-35.1-41.4c-4.6-5.1-8.4-9.3-6.3-16.5c0.8-3.8,2.5-8,3.8-11.8c3-9.3,6.3-18.2,9.3-27.5
														c0.4-0.8-0.4-1.7-0.8-1.7c-8.9-1.7-17.7-3.8-25.8-7.2c-8.9-3.4-15.6-9.7-24.1-13.9c-7.2-3.4-14.4-1.3-22-2.1
														c-11.4-1.3-14.4-17.7-18.2-26.6c-3.8-9.7-7.6-19.4-11.4-29.1c-3.4-9.3-8-18.6-10.1-28.3c-2.5-10.1,0.4-18.2,5.5-27
														c3.8-6.3,7.6-12.2,8.9-19.9C310.9,430.1,308.4,429.2,307.9,430.9L307.9,430.9z"/>
												</g>
											</g>
											<g>
												<path class="st19" d="M503.5,319.8c-3.8,0.4-7.6,0.8-11.8,0.8c-2.5,2.1-1.3,7.2,2.1,8.4c3,1.7,6.8,0.8,10.1,0
													c9.3-2.1,18.6-4.2,27.9-5.9c-2.1,3-3.8,5.5-5.9,8.4c5.9,4.2,16.5,2.5,19,9.7c0.8,2.1,0.4,4.2,0,6.3
													c-1.7,7.6-5.9,14.4-6.8,22c-0.8,7.6,4.2,17.3,11.8,16.5c3.8-0.4,7.2-3.8,9.7-6.8c2.5-3,5.5-5.9,8-8.9
													c1.7-1.7,3-3.4,5.1-3.8c2.1-0.8,4.2-0.4,6.3,0c14.8,1.7,29.1-4.6,42.7-11.4c-3.4-2.5-6.8-5.1-10.1-7.6
													c8,1.7,16.5-3.4,19-11c0.8-2.1,0.8-4.6,2.1-6.3c2.1-3,6.3-3.8,9.7-5.5c3.4-1.3,7.2-4.6,5.9-8.4
													c-8-0.4-16.5-0.8-24.5-1.3c-5.9-0.4-11.8-0.4-17.7-0.4c-8,0.4-16.5,1.7-24.5,2.1c-24.1,1.3-48.2-3.8-72.2,0"/>
												<g>
													<path class="st19" d="M503.5,318.5c-3.4,0.4-8.9-0.4-11.8,0.8c-1.3,0.4-1.7,1.3-2.1,2.5c-1.3,3,0.4,6.3,2.5,8
														c4.6,3.4,11.4,1.3,16.1,0c8-1.7,16.1-3.4,24.1-5.1c-0.4-0.8-0.8-1.3-1.7-2.1c-2.1,3-3.8,5.5-5.9,8.4
														c-0.4,0.4,0,1.3,0.4,1.7c4.6,3,10.6,2.5,15.2,5.5c7.6,4.6,0,16.9-2.1,23.2c-3,8-3.4,22,7.2,25.3
														c4.6,1.3,8.9-0.8,11.8-3.8c3-2.5,5.5-5.9,8-8.4c3.4-3.8,5.9-6.8,11.8-6.8c8,0,15.2,0,22.8-2.1c7.6-2.1,14.8-5.5,22-9.3
														c0.8-0.4,0.8-1.7,0-2.1c-3.4-2.5-6.8-5.1-10.1-7.6c-0.4,0.8-0.8,1.7-0.8,2.5c8.4,1.3,17.3-3,20.3-11.4
														c1.7-4.6,2.5-8,7.2-10.1c2.1-0.8,4.2-1.3,6.3-2.5c3.4-2.1,5.1-5.1,4.6-8.9c0-0.4-0.8-0.8-1.3-0.8
														c-11.8-0.4-23.7-1.3-35.5-1.7c-11.8,0-23.7,1.7-35.5,2.1c-22.8,0.4-45.6-3.8-68.4,0c-1.7,0.4-0.8,3,0.8,2.5
														c16.5-2.5,32.9-1.3,49.4-0.4c8,0.4,16.1,0.4,24.1,0c8.4-0.4,16.9-1.7,25.3-2.1c8,0,16.1,0.4,24.1,0.8
														c3.4,0,8.9-0.4,12.2,0.4c5.5,2.1-4.6,6.3-6.8,7.2c-4.6,1.7-7.2,4.2-8.9,8.9c-2.5,8-9.3,14.4-18.2,12.7
														c-1.7-0.4-2.1,1.7-0.8,2.5c3.4,2.5,6.8,5.1,10.1,7.6c0-0.8,0-1.7,0-2.1c-7.6,3.4-15.2,7.2-23.2,9.3
														c-4.2,1.3-8.4,2.1-13.1,2.1c-3.4,0-6.3-0.8-9.7-0.4c-10.6,0.4-21.1,28.3-32.1,17.3c-11-11,3.4-25.3,3.4-37.6
														c0-11-13.1-9.7-19.9-13.9c0,0.4,0.4,1.3,0.4,1.7c2.1-3,3.8-5.5,5.9-8.4c0.8-0.8-0.4-2.1-1.7-2.1
														c-8,1.7-16.1,3.4-24.1,5.1c-3,0.4-14.4,4.2-15.2-1.3c0.4-1.3,0.8-3,1.3-4.2c0.8,0,2.1,0,3-0.4c2.1,0,4.6-0.4,6.8-0.4
														C505.2,321.1,505.2,318.5,503.5,318.5L503.5,318.5z"/>
												</g>
											</g>
											<g>
												<path class="st19" d="M1013.8,928.1c11.4-4.2,22.4-8,33.8-12.2c-2.5-4.6-4.6-9.7-7.2-14.4c-8.4,7.2-21.1,7.6-30.4,1.7
													c19-9.7,38.4-19.9,57.4-29.6c2.5-5.5-6.8-8.9-12.7-7.6c-5.9,1.3-14.8,1.7-15.2-4.6c-7.2,6.8-18.6,3.8-28.3,1.7
													c-10.6-2.1-21.1-2.5-32.1-3c-22-0.4-43.9-0.4-65.9,0.4c-11,0.4-22.4,0.8-32.9,4.2c-20.3,6.3-38.4,22.8-59.1,20.3
													c4.2-5.9,9.3-11,15.2-14.8c-10.6-11-27.5-13.5-42.7-12.2c-15.2,1.3-30,5.9-45.6,6.8c-11.8,0.4-23.7-1.7-35.5-2.1
													c-41.8-1.7-81.5,16.1-120,32.9c5.5,7.6,17.7,8.9,24.5,2.5c2.5-0.4,3.8,3.8,2.1,5.9c-1.7,2.1-4.6,2.1-7.2,2.5
													c-34.2,1.7-68.4-2.1-101.4-11c6.8-3.4,13.9-7.2,20.7-10.6c-8-3.8-10.6-13.9-14.4-22c-3.8-8.4-13.1-16.5-20.7-11.4
													c2.5,7.2,5.1,14.8,7.6,22c-23.7,3-47.7,2.5-71.4-0.8c-2.1,3.4-2.1,8,0,11.4c-7.2,5.5-19,2.5-22.4-5.5
													c-20.3,2.5-40.1,5.1-60.4,7.6c-2.1,0.4-3.8,0.4-5.5,1.7c-4.2,3.8,0.4,11.4,5.9,13.5c5.5,2.1,12.2,3,14.8,8
													c1.7,3,1.3,6.8,2.1,10.1c1.3,3.4,5.1,5.9,7.6,3.4C375.5,923.4,983.8,939.5,1013.8,928.1z"/>
												<g>
													<path class="st19" d="M1014.2,929.3c11.4-4.2,22.4-8,33.8-12.2c0.8-0.4,1.3-1.3,0.8-2.1c-2.5-4.6-4.6-9.7-7.2-14.4
														c-0.4-0.8-1.3-0.8-2.1-0.4c-8.4,6.3-19.9,7.2-28.7,1.7c0,0.8,0,1.7,0,2.1c10.1-5.1,20.3-10.6,30.8-15.6
														c5.1-2.5,10.6-5.5,15.6-8c2.5-1.3,5.1-2.5,7.6-3.8c1.3-0.8,3.4-1.3,4.2-2.5c3-4.2-3-8-5.9-8.9c-2.5-0.8-5.5-0.8-8-0.4
														c-3.8,0.8-12.7,2.5-13.5-3.4c0-1.3-1.3-1.7-2.1-0.8c-7.6,6.3-18.2,3-27,1.3c-9.3-1.7-19-2.5-28.3-2.5
														c-20.3-0.4-40.6-0.4-60.8,0c-18.2,0.4-35.5,0.8-52.4,8.4c-15.6,7.2-31.3,18.2-49.4,16.5c0.4,0.8,0.8,1.3,1.3,2.1
														c4.2-5.5,8.9-10.6,14.8-14.4c0.8-0.4,0.8-1.3,0.4-2.1c-24.1-24.1-59.6-7.6-88.3-5.9c-18.2,0.8-35.9-3-53.6-1.3
														c-16.9,1.3-32.9,5.5-49,10.6c-18.6,6.3-36.3,13.9-54.5,22c-0.4,0.4-0.8,1.3-0.4,1.7c4.6,5.9,11.8,8.4,19,6.8
														c2.1-0.4,3.4-1.7,5.1-2.1c1.3-0.4,2.1-3,0.4,1.3c-0.8,3-1.7,2.5-4.2,3c-6.8,0.4-13.5,0.4-20.3,0.4
														c-27.5-0.4-54.5-4.2-81.1-11.4c0,0.8,0,1.7,0.4,2.5c6.8-3.4,13.9-7.2,20.7-10.6c0.8-0.4,0.8-1.7,0-2.1
														c-10.1-5.1-10.6-18.2-16.5-26.6c-4.6-6.3-12.2-11.4-19.4-7.2c-0.4,0.4-0.8,0.8-0.4,1.7c2.5,7.2,5.1,14.8,7.6,22
														c0.4-0.4,0.8-1.3,1.3-1.7c-23.7,3-47.3,2.5-71-0.8c-0.4,0-1.3,0-1.7,0.4c-2.5,4.2-2.5,8.9,0,13.1
														c0-0.4,0.4-1.3,0.4-1.7c-7.2,5.1-16.9,2.5-20.7-5.1c0-0.4-0.8-0.8-1.3-0.8c-16.5,2.1-33.4,4.2-49.8,6.3
														c-6.3,0.8-22.4,0.4-18.2,11.4c1.3,3.4,4.6,6.3,8,7.6c2.5,1.3,5.5,1.7,8,2.5c5.1,2.1,6.8,5.5,7.6,11
														c0.4,3.4,1.7,6.8,5.1,8.4c2.1,0.8,3,0,4.6-0.4c2.1-0.4,4.6,0,6.3,0c5.1,0,10.6,0.4,15.6,0.4c44.8,1.3,89.1,2.1,133.9,3
														c64.6,1.3,129.3,2.5,193.9,3.4c60.8,0.8,121.7,1.7,182.5,1.3c22,0,43.9-0.4,65.9-0.8c12.2-0.4,24.5-0.4,36.7-2.5
														C1011.7,929.8,1012.9,929.8,1014.2,929.3c1.7-0.4,0.8-3-0.8-2.5c-8.4,3-19.4,2.5-28.3,2.5c-19.9,0.8-40.1,0.8-60,1.3
														c-59.1,0.4-118.7-0.4-177.8-1.3c-65.1-0.8-130.1-2.1-195.2-3.4c-48.2-0.8-95.9-2.1-144-3.4c-10.1-0.4-20.3-0.4-30-0.8
														c-0.4,0-1.3,0-1.7,0c-7.6-0.8-6.3-3.8-7.6-9.3c-0.8-4.6-3.4-7.2-7.6-9.3c-5.1-2.5-12.2-2.5-14.8-8.4
														c-3.4-7.2,6.8-7.6,11.4-8c4.2-0.4,8.4-1.3,12.7-1.7c7.6-0.8,15.2-2.1,22.8-3c4.2-0.4,8.4-1.3,12.7-1.7
														c1.3,0,3.4-0.8,5.1-0.4c1.3,0.4,1.7,1.3,2.5,2.5c5.5,6.3,15.2,7.6,22,2.5c0.4-0.4,0.8-1.3,0.4-1.7
														c-1.3-2.1-1.7-4.2-1.3-6.3c0.4-3,1.7-2.5,3.8-2.5c3,0,5.9,0.8,8.4,0.8c6.3,0.8,13.1,1.3,19.4,1.3
														c13.5,0.4,26.6-0.4,39.7-1.7c0.8,0,1.7-0.8,1.3-1.7c-1.3-3.4-2.1-6.8-3.4-10.1c-0.4-1.7-0.8-3-1.7-4.6
														c-0.4-0.8-2.1-4.6-1.7-5.5c1.3-4.2,8-0.4,10.1,1.3c3,2.1,5.1,5.1,6.8,8c4.6,8.4,5.9,19,15.2,24.1c0-0.8,0-1.7,0-2.1
														c-6.8,3.4-13.9,7.2-20.7,10.6c-0.8,0.4-0.8,2.1,0.4,2.5c30,8,60.8,11.8,91.7,11.4c3.8,0,24.1,0.8,19-9.3
														c-2.1-4.2-4.6-1.3-7.2,0.4c-6.3,3.4-15.2,1.3-19.4-4.2c0,0.4-0.4,1.3-0.4,1.7c30.4-13.5,61.2-27.5,94.6-31.7
														c16.9-2.1,33.4,0,50.3,0.8c16.5,0.8,31.7-3.4,47.7-5.5c17.3-2.5,36.3-2.1,49.4,11c0-0.8,0-1.3,0.4-2.1
														c-6.3,4.2-11.4,9.3-15.6,15.2c-0.8,0.8,0.4,1.7,1.3,2.1c16.9,1.7,31.3-7.6,46-14.8c9.7-4.6,19.9-8,30.8-8.9
														c10.1-1.3,20.7-1.3,31.3-1.3c21.1-0.4,42.2-0.8,63.4,0.4c10.1,0.4,19.4,3,29.6,4.2c6.8,0.8,13.1,0.4,18.6-4.2
														c-0.8-0.4-1.7-0.4-2.1-0.8c0.4,4.2,3.8,6.3,8,6.8c3.4,0.4,22.8-3.4,19.4,4.2c-0.8,2.1-4.2,3-6.3,4.2
														c-2.5,1.3-5.1,2.5-7.6,3.8c-4.6,2.5-9.3,4.6-13.9,7.2c-9.7,5.1-19,9.7-28.7,14.8c-0.8,0.4-0.8,1.7,0,2.1
														c10.1,6.3,22.4,5.5,31.7-2.1c-0.8,0-1.3,0-2.1-0.4c2.5,4.6,4.6,9.7,7.2,14.4c0.4-0.8,0.4-1.3,0.8-2.1
														c-11.4,4.2-22.8,8-33.8,12.2C1011.7,927.2,1012.5,929.8,1014.2,929.3z"/>
												</g>
											</g>
											<g>
												<path class="st19" d="M614.2,364.6c4.6-0.8,9.3-0.4,13.5,1.3c1.3,0.4,2.1,0.8,3.4,0.4c0.8-0.4,1.3-1.3,1.7-1.7
													c1.3-2.1,2.5-4.2,4.2-6.3c1.7,0.8,3.4,2.1,5.1,3c-1.7,5.1-3.8,10.1-6.3,14.8c-0.8,1.7-1.7,3-3.4,3.8
													c-1.3,0.4-3,0.4-4.2,0c-7.2-1.3-14.4-2.5-21.1-3.8c0.8-5.1,2.5-10.1,5.9-13.9"/>
												<g>
													<path class="st19" d="M614.6,365.8c2.5-0.4,5.5-0.4,8,0c2.1,0.4,4.2,1.3,6.8,1.7c2.1,0.4,3.4-0.4,4.2-2.1
														c1.7-2.1,3-4.6,4.2-6.8c-0.4,0-1.3,0.4-1.7,0.4c1.7,0.8,3.4,2.1,5.1,3c0-0.4-0.4-0.8-0.4-1.7
														c-1.3,3.4-2.5,6.8-3.8,10.1c-1.3,2.5-2.5,8-6.3,8c-1.7,0-3.8-0.4-5.5-0.8c-2.1-0.4-3.8-0.8-5.9-0.8
														c-3.8-0.8-7.6-1.3-11.8-2.1c0.4,0.4,0.4,1.3,0.8,1.7c0.8-4.6,2.5-9.3,5.5-13.1c0.8-1.3-0.8-3.4-1.7-1.7
														c-3.4,4.2-5.5,9.3-6.3,14.4c0,0.8,0,1.7,0.8,1.7c4.6,0.8,9.3,1.7,13.5,2.5c2.1,0.4,4.2,0.8,6.3,1.3
														c1.7,0.4,3.8,0.8,5.5,0c3.4-0.8,4.6-5.1,5.9-8c1.7-3.8,3.4-7.6,4.6-11.8c0-0.4,0-1.3-0.4-1.7c-1.7-0.8-3.4-2.1-5.1-3
														c-0.4-0.4-1.3,0-1.7,0.4c-1.3,2.1-2.5,3.8-3.8,5.9c-0.8,1.3-1.3,2.1-3,1.7c-1.3-0.4-2.1-0.8-3.4-0.8
														c-3.8-1.3-8-1.3-12.2-0.8C612.5,363.7,612.9,366.3,614.6,365.8L614.6,365.8z"/>
												</g>
											</g>
											<g>
												<path class="st19" d="M830,665.8c-4.2,20.3-10.1,40.1-18.2,59.1c-3.8-1.7-7.6-3.4-11.4-5.5c3-2.1,6.3-5.9,4.6-9.3
													c-0.8-1.3-2.5-2.1-3-3.4c-0.4-1.3,0.4-3,0.8-4.2c5.9-10.1,11.8-20.3,17.3-30.4c1.3-1.7,3.8-3.8,4.6-1.7"/>
												<g>
													<path class="st19" d="M828.8,665.8c-4.2,20.3-10.1,39.7-18.2,59.1c0.8-0.4,1.3-0.4,2.1-0.8c-3.8-1.7-7.6-3.4-11.4-5.5
														c0,0.8,0,1.7,0,2.1c2.5-2.1,5.9-4.6,5.9-8.4c0-1.7-0.8-3-2.1-4.2c-1.3-1.3-2.1-1.3-1.3-4.2c0.4-1.3,1.7-2.5,2.1-3.8
														c3-5.1,5.9-10.1,8.9-15.2c1.3-2.5,2.5-4.6,4.2-7.2c0.4-0.4,4.6-8,5.5-6.8s3.4,0,2.1-1.3c-2.5-3.4-5.9,0-7.2,2.1
														c-3.4,5.9-6.8,11.8-10.1,17.7c-1.7,3-3.4,5.9-5.1,8.4c-1.3,2.1-3,4.2-3.4,6.8c-0.4,2.5,0.8,3.4,2.1,5.1
														c2.5,3.4-0.4,6.3-3,8.4c-0.8,0.4-0.8,1.7,0,2.1c3.8,1.7,7.6,3.4,11.4,5.5c0.8,0.4,1.7,0,2.1-0.8
														c7.6-19,13.9-38.9,18.2-59.1C831.7,664.5,829.2,664.1,828.8,665.8L828.8,665.8z"/>
												</g>
											</g>
											<g>
												<path class="st19" d="M756.9,490c-2.5,1.7-4.6,3.4-7.2,4.6c2.5-5.1-2.1-10.6-6.3-14.4c-6.3-5.1-12.7-10.6-18.6-15.6
													c-4.2-3.4-8.4-7.2-13.5-8c-5.1-0.8-11.4,1.3-13.1,6.8c3.8,3,7.6,6.3,10.6,10.1c-7.2,7.2-19.4,2.5-28.7-2.5
													c-2.5-1.3-5.5-3.4-6.3-6.3s1.3-6.3,2.1-9.3s0-7.6-3.4-7.6c-13.1,15.6-30,27.9-49,35.1c-5.5-1.3-8.4-8.4-7.2-14.4
													c1.3-5.9,5.1-10.6,8.9-15.2c4.6,4.6,12.7,5.5,18.2,0.8c-3-4.6-6.3-9.3-9.3-13.9c2.1-3,4.2-5.9,6.8-8.9
													c0.4-3.8-5.1-5.1-8.4-3.4c-3.4,1.3-6.8,4.2-10.1,3c-4.2-1.3-5.1-7.6-3-11.8c2.1-4.2,6.3-6.8,9.3-10.1
													c2.5-2.5,4.2-5.9,7.2-8c3-2.1,7.6-1.7,9.3,1.7c0.8,1.7,0.4,3.4,0.4,5.1c-0.4,7.6,3.4,14.8,9.3,19
													c17.3-9.7,35.9-16.1,55.3-19c-1.7-2.1-3.4-4.2-4.6-5.9C694,406,683,411,672.9,417c-4.2-7.2-8-15.2-10.6-23.2
													c11-8.9,21.5-18.2,31.3-28.7l10.6-5.9c13.9-2.1,28.3-1.3,41.8,2.1c-2.1,5.9-8.9,10.1-15.2,8.9c0.4,4.6,5.1,8,9.7,8
													c4.6,0,8.9-2.1,12.7-4.6c11-6.8,20.3-16.1,27.5-27c-2.5,5.1,3.8,10.6,9.7,11c5.5,0,11.4-2.1,16.9-0.8
													c5.1,1.3,8.9,5.9,9.3,11c9.3,0.4,14.8-14.4,7.2-20.3c37.6-19.4,82.8-9.3,124.2,1.3c7.6,2.1,17.7,7.6,15.2,15.2
													c8.4-0.8,17.3-1.7,24.1-6.3c2.5-1.7,4.6-3.8,7.6-4.6c2.1-0.8,4.2-0.4,6.3-0.4c31.3,1.3,62.5,5.5,93.4,12.2
													c5.1,1.3,10.1,2.1,13.9,5.5c3.8,3,6.8,8.4,5.1,13.5c-0.8,2.5-3,5.1-2.5,7.6c0.4,4.2,6.3,5.9,7.2,10.1c0.4,3-1.3,5.5-3,8
													c-5.5,7.6-11.4,15.6-16.9,23.2c-6.8-9.3-13.5-18.6-20.3-27.5c5.5-0.8,4.6-11-0.8-13.1c-5.5-2.1-11.4,0.8-16.5,3.4
													c-8,4.2-16.1,8.9-24.1,13.1c6.8,4.6,13.9,9.7,18.6,16.5c4.6,7.2,6.8,16.5,2.5,24.1c-0.8,1.7-2.5,3.4-2.5,5.5
													c-0.4,5.5,6.3,8,9.7,12.7c3,4.6,2.1,11-1.3,15.6c-3.4,4.2-8,7.2-12.7,9.7c-0.8-4.6-1.7-9.3-5.1-13.1
													c-3-3.4-8.9-5.1-12.2-2.1c-4.6,3.8-2.1,11.8,1.7,16.5c3.8,5.1,8.4,10.6,6.8,16.5c-0.8,3-3,5.5-5.1,7.6
													c-11.4,12.2-22.8,24.5-34.2,36.3c3.8,4.2,7.2,8.9,10.1,13.9c0.8,1.3,1.3,2.5,1.3,3.8c0,1.7-1.7,3.4-3,4.6
													c-5.1,4.2-11,7.2-17.3,6.8c-6.3-0.8-11.8-7.2-10.1-13.5c-3.8,0.4-7.2,3-9.3,6.3c-10.1-13.9-22.4-26.2-35.9-36.7
													c-5.9,4.6-11.8,9.3-16.1,15.6c-4.2,6.3-6.3,14.4-3.8,21.5c1.7,5.1,5.9,9.3,5.9,14.4c0.4,6.8-7.2,13.1-13.5,10.6
													c-5.1-1.7-8-7.2-10.6-11.8c-5.9-11.8-11.8-23.2-17.7-35.1l-3-13.9c-25.8-12.2-52-22.8-79.4-31.3
													c3.8,5.9,7.6,12.2,13.1,16.5c5.5,4.2,13.1,6.8,19.9,4.2c4.2,0.4,6.3,6.3,4.6,10.1c-1.7,4.2-5.5,6.8-8.9,8.9
													c-5.5,3.8-11.4,7.6-16.9,11.4c-1.7,0.8-3.4,2.1-5.1,2.1c-3.4,0-5.9-3.4-7.6-5.9c-6.3-9.3-12.2-19-18.6-28.3
													c-3-4.6-6.3-9.7-11.4-11.8c-5.1-2.1-12.2,0-13.5,5.5c-0.8,3.8,1.3,7.6,3.8,11c10.6,15.2,21.5,29.6,33.8,43.5
													c1.3,1.3,2.5,2.5,4.2,3c3,0,4.6-3.4,7.2-5.1c5.1-3.4,11.8,2.5,12.2,8.4c0.4,6.3-3.4,11.4-7.2,16.5
													C800,613,789.9,626,779.8,639.6c-1.7,2.5-3.8,5.1-4.2,8.4c0,3.8,2.1,7.2,3.8,11c3.8,8.9,2.1,19.4-3,27.9
													c-4.6,8.4-11.8,15.2-19,21.5c8,0.8,11.8,11.4,8.9,19c-3,7.6-10.1,12.7-16.9,16.9c-11,7.2-22.4,14.8-33.4,22
													c-1.3,0.8-3,1.7-4.6,1.7c-1.3,0-2.1-1.3-3-2.1c-11.8-12.2-8.4-32.5-9.7-49.8c-0.8-9.7-3.4-19-5.5-28.3
													c-4.6-17.7-9.3-35.5-13.9-53.2c-0.8-3.4-1.7-6.8-0.8-9.7c0.8-4.2,4.2-7.2,5.5-11.4c1.7-8-6.8-15.2-14.8-14.8
													c-8,0-15.2,4.6-22.4,8.4c-8,4.2-16.9,7.2-25.8,9.3c-2.5,0.4-5.1,0.8-7.2,0c-2.1-0.8-3.8-3-5.5-5.1
													c-8-11.4-14.4-23.2-19.9-35.9c-2.1-4.6-3.8-9.7-3.4-14.8c0.4-5.1,3.4-9.7,5.9-14.4c17.3-28.3,36.7-58.3,67.2-70.1
													c3-1.3,5.9-2.1,8.9-1.7c3,0.4,5.5,2.1,8,3.8c19,12.2,39.7,21.5,60.8,28.3l15.6-12.2"/>
												<g>
													<path class="st19" d="M756.5,489.2c-2.5,1.7-4.6,3.4-7.2,4.6c0.8,0.4,1.3,0.8,2.1,1.7c2.5-5.5-1.3-10.6-5.5-14.4
														c-6.8-6.3-14.4-12.2-22-18.2c-7.6-6.3-22.4-12.2-27,0.8c-0.4,0.4,0,1.3,0.4,1.7c3.8,3,7.2,6.3,10.1,10.1
														c0-0.4,0-1.3,0-1.7c-4.6,4.2-10.6,3.8-16.1,2.1c-5.5-1.7-12.2-4.2-15.2-8.9c-1.7-2.5-1.7-3.4-0.8-5.9
														c0.4-1.3,1.3-2.5,1.3-3.8c0.4-1.3,0.4-3,0.4-4.2c-0.4-2.5-1.7-4.6-4.6-5.1c-0.4,0-0.8,0-1.3,0.4
														c-9.3,11.4-20.7,20.7-33.4,27.9c-3,1.7-5.9,3-8.9,4.6c-5.1,2.1-8.9,2.5-11-3.4c-3-8,3-16.1,8-22c-0.4,0-1.3,0-1.7,0
														c5.5,5.1,13.5,5.9,19.4,1.3c0.4-0.4,0.8-1.3,0.4-1.7c-1.7-2.5-3.4-5.1-5.1-7.6c-2.1-3-4.2-4.6-2.1-8
														c1.7-3,5.9-5.5,3.8-9.3c-5.1-8.9-18.2,6.8-21.5-2.1c-2.5-6.3,3.8-11,7.6-14.8c3-3,8.9-13.5,13.9-10.6
														c3.8,2.1,3,12.2,4.6,16.5c1.7,4.2,4.6,7.6,8,10.1c0.4,0.4,0.8,0,1.3,0c17.3-9.3,35.5-15.6,54.9-19
														c1.3,0,1.3-1.7,0.4-2.1c-1.7-2.1-3.4-4.2-4.6-5.9c-0.4-0.4-0.8-0.4-1.3-0.4c-11.4,4.2-22.4,9.3-32.9,15.6
														c0.4,0,1.3,0.4,1.7,0.4c-2.5-4.6-5.1-9.3-7.2-14.4c-0.8-2.5-3.4-5.9-2.1-8.4c0.8-1.7,4.2-3.4,5.9-5.1
														c4.2-3.4,8.4-7.2,12.2-11c3.8-3.8,7.6-8.4,11.4-11.4c4.2-3,9.7-5.5,14.8-6.3c12.2-1.3,24.5-0.4,36.3,2.5
														c-0.4-0.8-0.4-1.3-0.8-2.1c-2.5,5.9-8,8.9-13.9,8c-0.8,0-1.3,0.8-1.3,1.7c2.5,11.8,16.1,9.3,23.7,4.6
														c11.4-7.2,21.1-16.9,28.7-27.9c-0.8-0.4-1.7-0.8-2.5-0.8c-2.1,5.9,3.4,11,8.9,12.2c4.2,0.8,8.9-0.8,13.1-0.8
														c7.2-0.4,12.2,3.4,13.9,10.6c0,0.4,0.8,0.8,1.3,0.8c11,0,16.1-15.6,8-22.8c0,0.8,0,1.3-0.4,2.1
														c22.4-11.4,47.3-12.7,71.8-9.3c12.2,1.7,24.5,4.2,36.3,6.8c8,2.1,32.1,4.6,29.1,17.3c0,0.8,0.4,1.7,1.3,1.7
														c7.6-0.4,15.2-1.3,22-4.6c3.4-1.7,6.3-5.1,10.1-6.3c4.2-1.3,9.7-0.4,13.9,0c20.3,1.3,40.6,3.4,60.8,6.8
														c9.3,1.7,18.6,3.4,27.5,5.5c5.1,1.3,10.1,3,13.1,7.6c1.7,2.5,2.5,5.5,1.7,8.9c-0.4,2.1-2.1,3.8-2.5,6.3
														c-1.3,8,9.7,8.9,5.1,18.2c-2.1,4.2-5.5,7.6-8.4,11.4c-3.4,4.6-6.3,8.9-9.7,13.5c0.8,0,1.7,0,2.1,0
														c-6.8-9.3-13.5-18.6-20.3-27.5c-0.4,0.8-0.4,1.3-0.8,2.1c7.2-2.1,5.5-13.1-0.4-15.6c-5.5-2.5-11.8,0.4-16.9,3
														c-8.4,4.2-16.5,8.9-24.9,13.5c-0.8,0.4-0.8,1.7,0,2.1c7.6,5.1,15.6,10.6,19.9,19c2.5,4.6,3.8,10.6,2.5,16.1
														c-0.8,3.8-3.8,6.3-4.2,10.1c-0.4,5.9,5.5,8.4,8.9,12.2c8.9,10.6-4.6,20.3-12.7,24.9c0.8,0.4,1.3,0.4,2.1,0.8
														c-1.3-7.2-4.2-17.3-13.5-17.7c-8.4-0.4-9.7,8.4-7.6,14.8c2.1,5.1,5.9,8.4,8.4,13.1c4.2,8.9-3,14.4-8,19.9
														c-9.7,10.6-19.4,20.7-29.1,31.3c-0.4,0.4-0.4,1.3,0,1.7c3,3.4,5.5,6.8,7.6,10.1c1.7,2.5,4.2,5.5,1.7,8.9
														c-0.8,1.7-3.4,3-5.1,3.8c-3.8,2.5-8.9,4.2-13.5,3c-5.1-1.3-8.9-6.3-8-11.4c0-0.8-0.4-1.7-1.7-1.7
														c-4.2,0.8-7.6,3-10.1,6.8c0.8,0,1.7,0,2.1,0c-10.6-13.9-22.4-26.2-36.3-36.7c-0.4-0.4-1.3-0.4-1.7,0
														c-10.6,8-23.2,18.6-21.5,33.4c0.8,7.2,8.4,14.4,6.8,21.5c-1.3,4.6-5.9,8-10.6,7.2c-4.6-0.8-7.6-5.5-9.7-9.3
														c-4.6-8-8.4-16.5-12.7-24.9c-3-5.5-5.9-10.6-7.2-16.9c-0.4-2.5-0.4-7.6-2.1-9.3c-1.7-2.1-6.8-3.4-9.3-4.6
														c-4.6-2.1-8.9-4.2-13.5-5.9c-18.6-8-37.6-15.2-57-21.1c-1.3-0.4-2.1,0.8-1.7,2.1c5.9,9.7,13.5,21.1,26.2,22.4
														c2.5,0.4,7.6-1.3,9.7,0c4.6,3,0.4,9.7-2.1,12.2c-5.9,5.5-13.5,9.3-20.3,13.9c-1.3,0.8-3.4,2.5-5.1,3
														c-3.8,0.8-5.9-3-7.6-5.1c-1.7-2.5-3.8-5.5-5.5-8.4c-4.6-7.2-9.3-14.4-13.9-21.5c-4.6-6.8-11.4-14.8-20.7-11.4
														c-12.7,4.6-2.5,18.2,2.5,24.9c8.9,12.2,18.2,24.5,27.9,35.9c2.1,2.5,4.6,5.5,8.4,4.2c2.1-0.8,3.4-3,5.1-4.2
														c5.9-4.2,11.4,3,11,8.4c-0.4,7.2-6.8,13.5-11,19c-5.1,6.8-10.1,13.5-15.2,20.3c-3,3.8-5.9,8-8.9,11.8
														c-2.1,3-4.6,5.5-5.9,8.9c-2.5,6.8,2.5,11.8,4.2,17.7c5.5,18.6-10.6,33.8-22.8,45.2c-0.8,0.4-0.4,2.1,0.4,2.1
														c5.1,0.8,8,5.5,8.4,10.6c0.8,5.9-2.1,11-6.3,15.2c-7.6,7.6-18.2,13.1-27.5,19.4c-4.6,3-8.9,5.9-13.5,8.9
														c-3.8,2.5-8,3.8-11,0c-1.7-2.5-3.4-5.1-4.2-8c-3.4-8.9-3-18.6-3-27.9c-0.4-21.5-6.8-41.8-11.8-62.5
														c-1.3-5.5-3-11-4.2-16.9c-1.7-6.3-4.2-13.1-4.6-19.4c-0.4-8.4,9.3-14.4,4.2-23.2c-10.1-17.7-31.3-2.5-43.1,3
														c-5.5,2.5-11.4,4.6-17.3,5.9c-4.2,1.3-8.4,2.1-12.2-1.7c-2.1-2.1-3.8-5.1-5.5-7.6c-6.3-9.7-11.8-19.9-16.1-30.4
														c-2.1-5.5-4.2-11.4-2.5-17.3c1.3-5.5,5.1-10.6,8-15.6c5.1-8,10.1-16.5,16.1-24.1c11.4-15.6,24.9-30,42.7-38.4
														c3-1.3,6.3-3,9.7-3.4c4.2-0.4,7.2,1.3,11,3.4c5.5,3.4,10.6,6.8,16.1,9.7c10.1,5.5,21.1,10.6,31.7,14.4
														c3,1.3,5.9,2.1,8.9,3c1.3,0.4,3.8,1.7,5.1,1.3c1.3-0.4,2.5-2.1,3.8-2.5c4.2-3.4,8.4-6.3,12.2-9.7
														c1.3-0.8-0.4-3-1.7-1.7c-4.2,3.4-8.4,6.3-12.2,9.7c-0.8,0.4-1.7,1.7-2.5,1.7c-1.3,0.4-1.3-0.4-3-0.8
														c-5.9-2.5-11.8-4.2-17.7-6.3c-12.2-5.1-23.7-11-34.6-17.7c-4.2-2.5-8.4-5.9-13.1-6.8c-4.2-0.8-8.9,1.3-12.7,3
														c-18.6,8-32.9,22.8-44.8,38.9c-6.8,8.9-12.7,18.2-18.2,27.5c-5.5,8.9-9.7,16.9-6.8,27.5c3.4,11.4,9.7,22.4,15.6,32.5
														c4.2,7.2,8.9,16.9,18.6,15.2c12.2-1.7,23.2-7.6,33.8-13.1c5.5-3,11.8-5.9,18.2-4.6c7.2,1.3,13.5,8,10.1,15.6
														c-2.1,4.2-4.6,7.2-4.6,12.2c0,6.3,2.5,13.1,4.2,19c3.4,12.7,6.3,24.9,9.7,37.6c3.4,12.7,6.3,24.9,6.8,38
														c0.4,9.3,0,19,1.7,28.3c1.3,5.5,5.9,20.3,13.9,18.6c2.5-0.4,5.1-3,7.6-4.2c3-2.1,6.3-4.2,9.3-5.9
														c6.3-4.2,12.2-8,18.6-12.2c8-5.5,18.6-11.8,19.9-22.4c0.8-7.2-2.5-15.6-10.6-16.9c0,0.8,0.4,1.3,0.4,2.1
														c10.1-9.3,20.7-19.4,23.7-33.4c1.3-5.9,0.8-11.8-1.7-17.3c-1.7-3.8-4.6-7.2-3.8-11.8c0.8-4.2,5.1-8,7.6-11.4
														c5.1-6.8,10.1-13.5,15.2-20.3c5.1-6.8,11-13.5,15.2-20.7c4.2-7.2,5.9-19.9-5.1-22.4c-1.7-0.4-3,0-4.6,0.4
														c-2.5,0.8-3.8,4.2-5.9,5.1c-3.8,1.7-8-5.9-10.1-8c-3-3.4-5.9-7.2-8.9-10.6c-5.1-6.8-10.1-13.5-15.2-20.3
														c-2.1-3-4.6-5.9-6.3-9.3c-3-5.9-1.3-12.2,5.9-12.2c8-0.4,12.7,8,16.1,13.9c4.2,6.8,8.4,13.5,13.1,20.3
														c2.5,4.2,5.5,10.6,10.1,12.7c5.5,2.5,11.4-3.4,15.6-5.9c6.8-4.6,27.5-14.4,18.6-25.8c-1.3-1.7-2.5-2.5-4.6-2.5
														c-0.8,0-3.8,0.8-4.6,0.8c-2.5,0-5.1-0.4-7.6-1.3c-9.3-3.4-14.8-12.2-19.4-19.9c-0.4,0.8-0.8,1.3-1.7,2.1
														c22.4,7.2,43.9,15.2,65.5,24.9c2.5,1.3,5.5,2.5,8,3.8c1.3,0.4,4.2,1.3,4.6,2.1c1.3,1.7,1.3,5.5,1.7,7.2
														c1.3,6.8,3.8,11.8,7.2,17.7c5.1,9.7,9.3,20.3,15.2,29.1c3.4,5.5,8.9,9.3,15.6,6.8c5.9-2.5,9.3-8.9,7.2-15.2
														c-1.3-4.2-4.2-7.6-5.5-11.4c-2.1-5.9-0.8-12.2,2.1-17.7c2.5-5.1,7.2-9.3,11.4-13.1c0.8-0.8,1.7-1.7,2.5-2.1
														c2.5-1.7,3-1.7,5.1,0c2.1,1.7,4.2,3.4,6.3,5.5c9.7,8.4,18.2,17.7,25.8,28.3c0.4,0.8,1.7,0.8,2.1,0
														c2.1-3,4.6-4.6,8.4-5.5c-0.4-0.4-1.3-1.3-1.7-1.7c-0.8,5.1,1.3,9.7,5.5,12.7c5.1,3.4,11.4,3,16.9,0.4
														c4.2-2.1,11.8-5.9,11-11.8c-0.4-3-3-5.5-4.6-8c-2.1-3.4-4.6-6.3-7.2-9.3c0,0.4,0,1.3,0,1.7c7.6-8,15.2-16.1,22.8-24.5
														c3.8-4.2,7.6-8,11.4-12.2c2.5-2.5,5.1-5.5,5.5-8.9c1.3-8-5.9-13.5-9.3-19.9c-1.3-2.5-2.5-5.5-1.7-8
														c1.3-5.1,6.3-5.9,10.1-3.4c4.6,3,5.5,8.9,6.3,13.9c0,0.8,1.3,1.3,2.1,0.8c7.2-4.2,15.2-8.9,16.5-18.2
														c0.4-3.8-0.4-7.6-3-10.6c-3.8-4.6-10.6-6.8-7.2-13.5c1.7-3.8,3.4-7.2,3.8-11.8c0-4.2-1.3-8.4-3-12.2
														c-4.2-8.9-13.1-15.2-21.1-20.7c0,0.8,0,1.7,0,2.1c8.4-4.6,16.5-9.3,24.9-13.5c4.2-2.1,10.6-5.5,15.2-2.5
														c3,2.1,4.6,8.9,0,10.1c-0.8,0.4-1.3,1.3-0.8,2.1c6.8,9.3,13.5,18.6,20.3,27.5c0.4,0.8,1.7,0.8,2.1,0
														c5.5-7.2,10.6-14.4,16.1-21.5c3-4.2,6.3-8.4,3-13.5c-0.8-1.3-1.7-2.1-2.5-3c-2.5-2.5-3-4.6-2.1-8.4
														c0.8-2.5,2.1-4.6,2.1-7.6c-0.4-5.1-3.8-9.7-8.4-12.2c-5.9-3.4-13.5-4.6-20.3-5.9c-8.9-1.7-17.3-3.4-26.2-4.6
														c-16.5-2.5-33.4-4.2-50.3-5.5c-8-0.4-14.8-1.7-21.1,3.4c-8,5.9-16.5,7.2-25.8,8c0.4,0.4,0.8,1.3,1.3,1.7
														c2.1-10.1-9.3-15.2-16.9-17.3c-14.4-3.8-28.7-7.2-43.5-9.3c-27.5-4.2-55.3-3.8-80.7,8.9c-0.8,0.4-0.8,1.7-0.4,2.1
														c4.2,3.8,3.8,10.1,0.4,14.4c-0.8,1.3-3.8,4.2-5.9,3c-0.8-0.4-2.1-4.6-3-5.5c-3-3.4-6.8-5.5-11.4-5.5
														c-3.8,0-7.6,1.3-11.4,1.3c-4.6,0-12.2-3-10.1-9.3c0.4-1.3-1.7-2.1-2.5-0.8c-5.5,8.4-11.8,15.6-19.9,21.5
														c-6.3,5.1-24.5,16.9-27.9,2.1c-0.4,0.4-0.8,1.3-1.3,1.7c7.2,0.8,13.5-3,16.5-9.3c0.4-0.8,0-1.7-0.8-2.1
														c-9.7-2.1-19.9-3.4-30-3c-3.8,0-8.9,0-12.7,1.3c-1.7,0.4-3.4,1.7-4.6,2.5c-1.7,0.8-3.8,1.7-5.5,3c-3,2.1-5.5,5.5-8,8
														c-7.6,7.6-15.6,14.4-24.1,21.1c-0.4,0.4-0.4,0.8-0.4,1.3c3,8,6.3,16.1,10.6,23.7c0.4,0.4,1.3,0.8,1.7,0.4
														c5.9-3.4,11.8-6.3,17.7-9.3c3.4-1.7,6.8-3,10.1-4.2c4.6-1.7,5.1,0.4,8,4.2c0-0.8,0.4-1.3,0.4-2.1
														c-17.7,3-34.6,8.4-50.7,16.5c-3,1.7-4.2,2.5-6.8-0.4c-1.3-1.3-2.5-3.4-3.4-5.1c-1.3-2.5-2.1-5.5-2.1-8.4
														c0-1.7,0.4-3.8,0-5.5c-0.8-4.2-4.6-6.3-8.9-5.1c-5.9,1.7-9.3,8.4-13.1,12.2c-4.2,3.8-8.4,8-7.6,13.9
														c0.4,4.6,3.8,8,8.4,7.2c3.4-0.4,5.5-3,8.4-3.8c4.6-1.3,5.5,1.3,3.8,4.6c-0.8,2.1-3,4.2-4.2,5.9c-0.4,0.4-0.4,0.8,0,1.3
														c3,4.6,6.3,9.3,9.3,13.9c0-0.4,0.4-1.3,0.4-1.7c-5.1,3.8-11.8,3.4-16.5-0.8c-0.4-0.4-1.3-0.4-1.7,0
														c-6.3,7.6-15.2,22-4.6,30.4c5.1,3.8,12.2-1.3,16.9-3.8c6.8-3.4,13.5-7.6,19.4-12.7c3.4-2.5,6.3-5.5,9.7-8.4
														c1.3-1.3,2.5-2.5,3.4-3.8c1.3-1.7,4.6-7.2,5.9-0.8c0.4,3.4-2.5,6.8-2.5,10.6c0,2.5,1.3,4.6,3,6.3
														c4.6,4.2,12.2,7.2,18.6,8.4c5.9,1.3,11,0.4,15.6-3.8c0.4-0.4,0.4-1.3,0-1.7c-1.7-2.5-3.8-4.6-5.9-6.8
														c-0.4-0.4-3-2.1-3-2.5c-0.4-1.3,1.3-3.4,2.5-3.8c6.8-4.2,13.9,0.4,19.4,4.6c5.1,4.2,10.1,8.4,15.2,12.7
														c4.6,4.2,14.4,10.1,11.4,17.7c-0.4,1.3,0.8,2.1,2.1,1.7c2.5-1.7,4.6-3.4,7.2-4.6C759.1,490.5,757.8,487.9,756.5,489.2
														L756.5,489.2z"/>
												</g>
											</g>
											<g>
												<path class="st19" d="M1005.3,608.3c-3-0.4-3.4-5.1-5.1-7.6c-1.7-2.5-5.1-3.4-8-3.8c-5.9-0.8-11.8-2.1-17.3-3
													c11.8,18.6,24.1,36.7,36.7,54.5"/>
												<g>
													<path class="st19" d="M1005.7,607c-2.5-0.4-3-4.2-3.8-5.9c-1.3-2.1-3-3.4-5.1-4.2c-3-1.3-6.3-1.3-9.7-2.1
														c-3.8-0.8-8-1.3-11.8-2.1c-0.8,0-2.1,0.8-1.7,2.1c11.8,18.6,24.1,36.7,36.7,54.5c0.8,1.3,3.4,0,2.1-1.3
														c-12.7-17.7-24.9-35.9-36.7-54.5c-0.4,0.8-0.8,1.3-1.7,2.1c3.8,0.8,7.6,1.3,11.4,2.1c3.4,0.4,7.2,0.8,10.6,2.1
														c3,1.3,3.8,3.8,4.6,6.3c0.8,1.7,2.1,3.4,3.8,3.8C1006.6,610,1007,607.5,1005.7,607L1005.7,607z"/>
												</g>
											</g>
											<g>
												<path class="st19" d="M1016.3,642.9c1.3-5.5-4.6-9.3-8.4-13.1c-5.5-5.9-7.2-15.6-3.4-22.8"/>
												<g>
													<path class="st19" d="M1017.6,643.4c1.3-6.8-5.5-10.6-9.3-15.2c-4.6-5.5-5.5-13.9-2.5-20.7c0.8-1.7-1.7-3-2.1-1.3
														c-3,6.3-3,13.9,0.4,20.3c1.7,3,3.8,5.5,6.3,7.6c2.5,2.1,5.5,5.1,4.6,8.9C1015,644.2,1017.6,645.1,1017.6,643.4
														L1017.6,643.4z"/>
												</g>
											</g>
											<g>
												<path class="st19" d="M1026.9,616.3c10.6-11.4,21.1-22.4,31.7-33.8c0.4-0.4,0.8-0.8,1.3-0.8c2.5-0.8,3.4,3.8,5.9,4.6
													c-5.1,4.2-10.6,8.9-10.6,15.6c0,3.4,1.3,6.8,1.7,10.1c0.4,6.8-3,12.7-6.3,18.6c-0.4,0.8-1.3,2.1-2.1,2.1
													c-0.8,0.4-1.7,0-2.5-0.4c-4.6-1.7-8.9-3.4-13.5-5.1c-1.7-0.8-3.8-1.3-5.1-3c-1.3-1.3-2.1-3.8-0.8-5.5"/>
												<g>
													<path class="st19" d="M1027.7,617.2c6.8-7.2,13.9-14.8,20.7-22c1.7-1.7,3.4-3.4,4.6-5.1c1.7-1.7,3.4-4.2,5.5-5.9
														c2.1-1.7,2.1-0.8,3.8,0.8c0.8,0.8,1.7,1.7,3,2.1c0-0.8-0.4-1.3-0.4-2.1c-4.2,3.4-8.4,7.2-10.1,12.2
														c-2.1,6.3,1.7,12.7,0.4,19c-0.8,3.4-2.1,6.3-3.8,9.3c-0.8,1.3-1.7,3-2.5,4.2c-1.3,2.1-3,0.8-5.1,0.4
														c-3.4-1.3-6.8-2.5-9.7-3.8c-2.5-0.8-9.3-3-6.8-7.2c0.8-1.7-1.3-3-2.1-1.3c-3.8,6.8,5.5,9.7,10.1,11.4
														c2.1,0.8,4.2,1.7,6.3,2.5c1.7,0.8,3.8,1.7,5.5,1.7c3,0,4.6-3.4,5.9-5.5c1.7-3.4,3.4-6.8,4.6-10.1
														c0.8-3.8,0.4-7.2-0.4-11c-0.8-4.2-0.8-8,1.7-11.8c2.1-3,5.1-5.5,7.6-8c0.8-0.8,0.4-2.1-0.4-2.1c-2.5-0.8-3-5.1-6.3-4.6
														c-2.1,0.4-3.4,2.5-4.6,3.8c-2.1,2.1-3.8,4.2-5.9,6.3c-7.6,8.4-15.6,16.5-23.2,24.9
														C1024.8,616.8,1026.4,618.4,1027.7,617.2L1027.7,617.2z"/>
												</g>
											</g>
											<g>
												<path class="st19" d="M1105.9,625.6c6.3,7.2,11.4,15.6,15.6,24.5c0.4,0.8,0.8,1.7,1.7,2.1c1.3,0.4,2.5,0,3.4-0.4
													c3-1.7,5.9-4.2,9.7-3.8c3.8,0.4,6.3,3.8,9.3,5.9c3,2.1,8.4,2.5,9.3-1.3c0.4-1.7-0.4-3.4-1.3-4.6
													c-4.2-7.2-8.4-14.8-15.6-18.2c-2.5-1.3-5.5-2.1-8.4-2.5c-7.6-1.7-15.2-3.8-22.8-5.5"/>
												<g>
													<path class="st19" d="M1105,626.5c3.4,4.2,6.8,8.4,9.3,12.7c1.3,2.1,2.5,4.2,3.8,6.3c1.3,2.1,1.7,4.6,3.4,6.3
														c2.5,3.8,6.8,0.8,9.7-0.8c2.5-1.3,4.6-2.5,7.6-1.3c2.1,0.8,3.4,3,5.1,4.2c2.5,2.1,5.5,3.4,8.4,2.5
														c3-0.8,4.6-3.4,3.8-6.3c-0.4-2.1-1.7-3.8-3-5.5c-1.3-2.1-2.1-3.8-3.8-5.9c-2.5-3.4-5.1-6.3-8.4-8.9
														c-4.6-3-10.1-3.8-15.6-5.1c-5.9-1.3-12.2-3-18.2-4.2c-1.7-0.4-2.5,2.1-0.8,2.5c8.9,2.1,18.2,3.8,27,6.3
														c8.4,2.5,13.1,8.9,17.3,16.1c0.8,1.7,2.5,3.4,3,5.5c0.4,2.5-1.3,3.4-3.4,3c-3.8-0.4-5.9-3.4-8.4-5.5
														c-2.5-2.1-5.5-3-8.9-1.7c-1.7,0.4-3,1.7-4.6,2.5c-0.8,0.4-1.7,1.3-2.5,1.3c-2.1,0.4-2.5-0.8-3.4-2.5
														c-4.2-8.9-9.3-16.9-15.6-24.1C1105.4,623.1,1103.7,625.2,1105,626.5L1105,626.5z"/>
												</g>
											</g>
											<g>
												<path class="st19" d="M1102.9,622.7"/>
												<g>
													<path class="st19" d="M1102.9,623.9c1.7,0,1.7-2.5,0-2.5C1101.2,621.4,1101.2,623.9,1102.9,623.9L1102.9,623.9z"/>
												</g>
											</g>
											<g>
												<path class="st19" d="M1109.2,665.8c-2.5,9.7,3.8,20.3,13.1,22.8c2.1-7.6,3.4-15.2,4.2-23.2c4.6-0.4,8.4,3,10.6,7.2
													c2.1,4.2,3,8.9,4.2,13.1c4.2,12.2,13.9,21.5,20.3,32.9c1.3,2.5,2.5,5.5,2.5,8.4c-0.4,3-2.1,5.5-3.8,7.6
													c-16.5,20.7-32.5,41.4-49,62.1c-3-6.3-3.4-14.4-0.4-20.7c-4.6,0-8-4.6-9.3-9.3c-1.3-4.6-1.7-9.7-3.4-13.9
													c-4.6-10.6-17.7-13.9-29.1-12.2c-4.2,0.8-8.9,2.1-11.4,5.5c-1.3,1.3-1.7,3-3.4,3.8c-1.3,0.8-2.5,0.8-4.2,1.3
													c-9.3,0.8-18.6,1.7-27.5,2.5c3-3.4,4.2-8,3.4-12.2c3.4-7.6,4.6-16.5,3-24.5c-0.4-2.5-1.3-5.5-0.4-7.6
													c0.8-3,3.8-4.2,6.8-5.9c11-5.1,21.5-10.1,32.1-16.1c11.4-6.8,22.8-14.4,32.9-22.8"/>
												<g>
													<path class="st19" d="M1108,665.3c-2.1,10.6,3.8,21.1,13.9,24.5c0.8,0,1.3-0.4,1.7-0.8c2.1-7.6,3.4-15.6,4.2-23.7
														c-0.4,0.4-0.8,0.8-1.3,1.3c8.4-0.4,11,9.3,12.7,16.1c1.3,5.1,3.4,9.7,6.3,14.4c3,4.6,5.9,8.9,9.3,13.1
														c3.8,5.5,10.1,13.1,7.2,19.9c-3,6.3-8.9,11.8-13.1,16.9c-4.2,5.5-8.4,11-13.1,16.5c-8.4,11-17.3,22-25.8,32.9
														c0.8,0,1.3,0,2.1,0.4c-3-6.3-3-13.5,0-19.9c0.4-0.8-0.4-1.7-1.3-1.7c-11-1.3-8.9-19-13.9-26.2
														c-4.2-5.9-11.4-8.4-18.2-9.3c-7.2-0.8-16.5,0-21.5,5.5c-2.5,2.5-3.4,4.2-7.2,5.1c-3,0.8-5.9,0.4-8.9,0.8
														c-6.3,0.4-12.7,1.3-18.6,1.7c0.4,0.8,0.8,1.3,1.3,2.1c3-3.8,3.4-7.2,3.8-11.4c0.4-4.6,2.5-8.9,3.4-13.5
														c0.4-5.1,0-9.7-0.8-14.4c-1.7-8.9,6.8-11,13.1-13.9c20.7-9.7,40.1-21.1,57.9-35.5c1.3-1.3-0.4-3-1.7-1.7
														c-19,15.6-40.1,27-62.1,37.6c-3.4,1.7-7.6,3.4-9.7,6.8c-1.7,3.4-0.4,7.6,0,11c0.8,5.9,0.4,12.2-1.3,18.2
														c-0.8,2.5-1.3,3.8-1.7,6.3c0,3.8-1.3,7.2-3.4,10.1c-0.4,0.8,0,2.1,1.3,2.1c5.9-0.4,11.8-1.3,17.7-1.7
														c4.2-0.4,9.3,0,13.5-1.7c1.7-0.4,2.5-1.7,3.4-3c2.1-2.5,4.2-4.6,7.6-5.9c4.6-1.7,10.1-1.7,15.2-1.3
														c11,1.7,17.3,8.4,19.4,19c1.3,7.2,3.8,15.2,12.2,16.5c-0.4-0.4-0.8-1.3-1.3-1.7c-3,7.2-3,14.8,0.4,22
														c0.4,0.8,1.7,0.8,2.1,0.4c10.1-13.1,20.7-26.2,30.8-39.3c5.1-6.8,10.1-13.1,15.6-19.9c3.4-4.2,8-8.9,6.8-14.8
														c-0.8-5.9-5.9-11.8-9.3-16.5c-3.8-5.5-8-11-11-16.9c-4.2-8.9-5.1-26.6-18.6-26.2c-0.8,0-1.3,0.4-1.3,1.3
														c-0.8,7.6-2.1,15.2-4.2,22.8c0.4-0.4,1.3-0.4,1.7-0.8c-8.9-3-14.4-12.2-12.2-21.1
														C1110.9,664.5,1108.4,663.6,1108,665.3L1108,665.3z"/>
												</g>
											</g>
										</g>
									</g>
								</g>
							</g>
						</g>
						<path class="st20" d="M846.1,478.2c3.4,14.4,6.3,28.7,8.9,43.1c4.2,26.6,3.4,110.2-25.3,155.4c-27.9,43.5-70.5,73.5-116.6,95
							c-20.3,9.3-42.7,16.9-75.6,16.1c-21.5-0.8-43.5-2.5-64.2-9.3c-42.7-13.9-81.9-41-112.4-74.3c-26.2-29.1-44.4-63.8-50.3-103.5
							c-5.9-38.4-3-78.1,5.1-116.2c8.4-39.7,22.8-78.6,43.9-112.8c6.3-10.1,13.5-19.9,21.5-29.1C393.7,387.8,333.3,480.7,333.3,588
							c0,151.6,120,274.6,267.8,274.6S868.9,739.7,868.9,588C868.5,548.7,860.4,512,846.1,478.2z"/>
					</g>
				</g>
			</g>
			<g>
				<g>
					<rect x="791.2" y="743.9" class="st21" width="145.3" height="10.6"/>
					<polyline class="st22" points="854.1,870.6 793.3,754.5 936.5,754.5 996,870.6 					"/>
					<line class="st22" x1="815.2" y1="795" x2="957.2" y2="795"/>
					<line class="st22" x1="840.2" y1="843.6" x2="982.5" y2="843.6"/>
					<line class="st22" x1="751.9" y1="870.6" x2="793.3" y2="754.5"/>
					<line class="st22" x1="899.7" y1="870.2" x2="936" y2="754.5"/>
				</g>
				<g>
					<g>
						<g>
							<g>
								<path class="st1" d="M862.5,365.4"/>
								<path class="st1" d="M824.5,376.8l4.6-52.4c-0.8-3,2.5-14.4,5.1-16.5c6.8-5.9,14.4-6.3,23.7-6.3c0,0,16.5,0.8,21.1,14.8
									c4.6,13.9,3.8,27.5,10.6,31.3c8.9,4.6,22,24.5,22,34.2"/>
								<path class="st23" d="M860.4,329.9c0,0.4,0.4,0.8,0.8,0.8c1.7-0.4,5.5-1.3,6.8,3.4c0.8,2.5-0.8,4.6-2.5,5.5
									c-1.7,0.4-3.8,1.3-4.6,0.8c-1.3,2.1-2.5,18.2-1.7,19.9c6.3,9.3,8,9.3,8,9.3s-36.7,43.5-30.8,7.6l0.8-28.3
									c-2.5,0-11.4-1.3-9.3-20.3c2.1-17.7,14.4-18.6,17.7-18.6C847.8,309.7,857.1,308.4,860.4,329.9z"/>
								<path class="st1" d="M834.2,310.5c0,0,8.4,20.7,26.6,22.8C860.9,332.9,867.2,288.1,834.2,310.5z"/>
								<g>
									<path class="st24" d="M860.4,335c3.4-6.8,5.5-0.8,5.5-0.8L860.4,335z"/>
								</g>
							</g>
							<g>
								<path class="st23" d="M841.9,706.7l-3.4,29.6c0,0-8,8.9-12.2,3.8c-2.1-2.5-8.9-5.5-9.7-7.2c2.1-1.3,7.6-5.1,7.6-5.1l-1.3-22
									L841.9,706.7z"/>
								<path class="st25" d="M830.9,707.6l0.4,6.3c0,0,7.2,24.1,8,21.1l2.5-25.8L830.9,707.6z"/>
								<path class="st13" d="M824.5,727.4l-20.3,13.1c-0.8,0.8-0.4,3.4,0.8,3.4h31.3l1.7-5.1l2.5,5.1c0,0,2.1,0,2.1-0.4
									s-0.8-12.2-3-15.6c-0.4-0.4-6.3,3-9.7,3.8C828.3,730.8,825,727,824.5,727.4z"/>
							</g>
							<g>
								<path class="st23" d="M920.8,707.1l7.2,26.6c0,0-8.4,11.4-12.7,6.3c-2.1-2.5-8.9-5.5-9.7-7.2c2.1-1.3,7.6-5.1,7.6-5.1
									l-8-21.1L920.8,707.1z"/>
								<path class="st25" d="M914.9,706.7l0.4,2.1c0,0,12.2,28.3,13.1,25.8l-4.6-27.9H914.9z"/>
								<path class="st13" d="M912.8,727.4l-20.3,13.1c-0.8,0.8-0.4,3.4,0.8,3.4h31.3l1.7-5.1l2.5,5.1c0,0,2.1,0,2.1-0.4
									s-2.1-12.7-4.2-16.5c-0.4-0.4-5.1,3.4-8.4,4.2C916.6,730.8,913.7,727,912.8,727.4z"/>
							</g>
							<g>
								<path class="st3" d="M876.1,441c7.6,13.5,11.8,23.7,16.1,41c5.1,20.3,43.5,190.1,46,226.8c-6.3,1.7-36.7,1.3-40.6,1.3
									c-7.6-36.3-39.3-155-44.8-178.3c-0.8-3.4-6.3-3-5.9,0.8c3,26.2,11.4,143.2,14.8,183.3c-3.4,1.7-37.2,1.3-41,0.8
									c-4.2-45.2-27.5-221.3,5.9-276.7C842.3,438.1,860.9,440.6,876.1,441z"/>
								<path class="st26" d="M828.8,441.5c0,0-13.5,38.4-13.5,85.7c0,47.7,15.6,168.1,15.6,168.1"/>
								<line class="st26" x1="923" y1="695.7" x2="868.9" y2="444.4"/>
								<path class="st26" d="M859.2,445.7c0,0-0.8,44.4,18.6,41"/>
								<path class="st4" d="M824.5,445.3l71.4,49.8c0,0-5.9-27.9-16.9-48.6L824.5,445.3z"/>
								<path class="st26" d="M818.6,487.9c19.4,3.4,16.9-44.4,16.9-44.4"/>
							</g>
							<path class="st27" d="M856.2,366.7c0,0,3.8-1.3,3.4-0.4c-0.8,0.8-2.1,1.7-3.4,2.5V366.7z"/>
							<line class="st26" x1="860" y1="695.7" x2="817.8" y2="695.7"/>
							<line class="st26" x1="936" y1="695.3" x2="895.5" y2="695.3"/>
							<g>
								<path class="st23" d="M839.3,373.4c-1.7-1.7-58.7,2.1-58.7,2.1l-35.9-41c0-2.5-0.4-6.8-0.8-8.9c-0.4-2.1,0-5.5,0.8-7.2
									c0-0.4-0.4-0.8-0.8-0.8c-0.8,0.4-2.1,0.8-2.5,2.5c-0.4,1.7-1.7,4.2-2.1,5.9c0,0.4-0.4,0.4-0.8,0.4c-1.3-0.8-2.1-1.7-3.8-3.8
									c-0.4-0.8-2.1-2.5-3.8-5.5c-1.7-3-3.4-7.2-4.6-5.9c-0.8,0.8,1.7,7.2,2.1,8c0.8,2.1,2.1,5.5,2.1,5.5c0,0.4-3.8-4.2-5.1-6.8
									c-1.7-3-3-5.5-3.8-5.9c-0.8,0,0,2.5,0,2.5s-1.7-1.7-2.1-1.3c-0.4,0.4,0.8,4.6,2.1,7.6c-2.5-2.1-2.5-0.8-2.5-0.8
									s3.4,7.2,5.1,8.4c1.3,1.3,3,4.2,3.4,4.6c0.4,0.4,4.6,6.8,9.7,9.7c3.4,6.3,31.3,58.3,37.2,57.9
									C825.4,396.7,852.8,385.7,839.3,373.4z"/>
								<path class="st8" d="M839.3,373.4c-2.1-3.4-58.7,2.1-58.7,2.1l-31.3-35.9c-2.5,2.1-4.6,4.6-7.2,6.8
									c-0.8,0.8-3.4,2.5-4.2,3.4c8,14.4,31.3,51.5,36.3,52C857.1,408.5,849.5,388.7,839.3,373.4z"/>
								<g>
									<g>
										<path class="st28" d="M722.3,321.5c1.3,0.8,2.1,2.1,3,2.5c0.8,0.8,2.1,1.7,3,3l-1.7-0.4c1.3-0.8,3-1.3,4.6-1.7
											c-0.8,1.7-2.1,2.5-3.4,3.8l-0.8,0.8l-0.8-0.8c-0.8-0.8-1.7-1.7-3-3C722.7,324.4,722.3,322.8,722.3,321.5z"/>
									</g>
									<g>
										<path class="st28" d="M739.6,334.6c-1.3-0.8-1.7-2.5-1.7-3.8c0-1.3,0.4-2.5,2.1-3.4c0.4,1.3,0.8,2.5,0.4,3.8
											C740.5,332.1,740.1,333.3,739.6,334.6z"/>
									</g>
									<g>
										<path class="st28" d="M722.7,315.6c1.3,1.7,2.5,3,3.8,4.6c1.3,1.7,2.1,3.4,2.5,5.5c-2.1-1.3-3.4-2.5-4.6-4.2
											C723.2,320.2,721.9,317.7,722.7,315.6z"/>
									</g>
								</g>
							</g>
							<g>
								<path class="st8" d="M835.9,365.8c0.4,1.3-18.2,36.3-17.3,46.9c0.4,10.6,5.5,32.5,5.5,32.5s48.2,2.1,55.3,1.7
									c3.4-31.3,7.2-65.9-1.3-71c0,0-15.2-13.9-19-13.9l-13.1,9.3C840.6,376.4,836.4,373,835.9,365.8L835.9,365.8z"/>
								<path class="st4" d="M877.8,376.4c-2.5,6.8-5.1,13.5-8,19.9c-4.2,8.9-9.7,17.3-15.2,25.3c-5.9,8.4-12.7,16.5-19.4,24.5
									c14.8,0.4,39.3,1.3,44.4,1.3C882.8,415.7,886.2,381.5,877.8,376.4z"/>
								<g>
									<path class="st29" d="M841.4,373.9c0,0-5.1,15.2,5.9,10.6c10.6-4.6,19.4-18.2,19.4-18.2l-8-8.9
										C858.3,357.4,848.2,373,841.4,373.9z"/>
									<path class="st29" d="M841.4,373.9c0,0-6.3,11.8-8.9,9.7c-3-2.1-1.3-15.6-1.3-15.6l5.5-5.9
										C836.4,362,837.6,373.4,841.4,373.9z"/>
								</g>
							</g>
						</g>
						<g>
							<g>
								<path d="M876.9,316.4c2.1,11.4,5.9,23.7,15.6,30.8c6.3,4.6,12.2,9.3,16.1,16.5c3,5.5,5.1,11.8,6.3,18.2
									c0.4,1.3,2.1,0.8,1.7-0.4c-1.3-5.9-3-11.4-5.5-16.9c-3-6.3-7.6-11.4-13.1-15.6c-2.5-1.7-5.1-3.4-7.2-5.5
									c-2.5-2.1-4.2-5.5-5.5-8.4c-3-5.9-4.6-12.7-5.9-19C878.2,314.7,876.5,315.2,876.9,316.4L876.9,316.4z"/>
							</g>
						</g>
						<polygon class="st24" points="836.4,348.9 843.5,348.5 836.8,359.9 						"/>
						<g>
							<path class="st23" d="M905.2,425.8c14.4-5.1,30-4.6,40.1-7.2c7.2-5.1,6.3-3.8,11.8-7.2c0,0,5.9-3.8,5.5-1.3
								c0,0.4-6.3,6.8-5.9,6.8c0.4,0,17.3-1.7,17.3-0.4c0,1.7-10.1,1.7-10.1,2.5s10.6-0.4,11,0.8c0.4,1.3-10.1,2.5-9.7,3
								c0.4,0.4,10.1-1.3,10.6,0c0.4,0.8-10.1,2.5-10.6,3c0,0.4,9.7-0.8,10.6,0s-8.4,2.1-11.4,3.4c-9.3,3.8-15.2,5.1-17.3,5.9
								c-3.8,2.5-44.8,19.4-62.5,16.1c0,0-3-4.2-4.2-15.6L905.2,425.8z"/>
						</g>
						<path class="st8" d="M940.3,417.8c-10.6,2.1-23.2,1.3-34.6,5.5c-3-11-16.5-53.6-32.1-49.4c-18.2,4.6,10.6,78.6,10.6,78.6
							c15.2,3,48.6-10.6,60-15.6C942.4,430.5,942,423.3,940.3,417.8z"/>
					</g>
				</g>
				<g>
					<path class="st29" d="M709.2,331.2c-8.9-3.8-22.4-9.7-29.1-12.7l0,0l-8-8.4l-8.9,19.9l12.7-0.4l0,0c7.6,3.4,21.5,9.3,28.7,12.2
						L709.2,331.2z"/>
					<polygon class="st29" points="741.3,332.1 707.5,350.6 691.5,307.6 713.4,295.3 					"/>
					<path class="st30" d="M716,300.4l4.2-2.5c4.2-2.5,9.7-0.8,12.2,3.4l5.9,11c2.5,4.2,0.8,9.7-3.4,12.2l-3.4,1.7"/>
				</g>
			</g>
		</g>
	</g>
</g>
</svg>
